#usda 1.0
(
    customLayerData = {
        dictionary renderSettings = {
        }
    }
    defaultPrim = "ReferenceTarget"
    metersPerUnit = 1
    upAxis = "Z"
)

def Xform "ReferenceTarget" (
    kind = "group"
)
{
    float3 xformOp:rotateXYZ = (0, 0, 0)
    float3 xformOp:scale = (1, 1, 1)
    double3 xformOp:translate = (0, 0, 0)
    uniform token[] xformOpOrder = ["xformOp:translate", "xformOp:rotateXYZ", "xformOp:scale"]

    def Xform "XForms" (
        kind = "group"
    )
    {
        float3 xformOp:rotateXYZ = (0, 0, 0)
        float3 xformOp:scale = (100, 100, 100)
        double3 xformOp:translate = (0, 0, 0)
        uniform token[] xformOpOrder = ["xformOp:translate", "xformOp:rotateXYZ", "xformOp:scale"]

        def Xform "World" (
            kind = "component"
        )
        {
            float3 xformOp:rotateXYZ = (0, 0, 0)
            float3 xformOp:scale = (1, 1, 1)
            double3 xformOp:translate = (0, 0, 0)
            uniform token[] xformOpOrder = ["xformOp:translate", "xformOp:rotateXYZ", "xformOp:scale"]

            def Scope "Looks" (references = @materials.usda@</Looks>)
            {
            }

            def Xform "plant_21_007"
            {
                float3 xformOp:rotateXYZ = (0, -0, 0)
                float3 xformOp:scale = (0.4, 0.4, 0.4)
                double3 xformOp:translate = (0, 0, 0)
                uniform token[] xformOpOrder = ["xformOp:translate", "xformOp:rotateXYZ", "xformOp:scale"]

                def Mesh "Plane_183" (
                    prepend apiSchemas = ["MaterialBindingAPI"]
                )
                {
                    float3[] extent = [(-0.37752885, -0.38839346, -0.0040609553), (0.42952344, 0.42920312, 0.6077845)]
                    int[] faceVertexCounts = [3, 3, 3, 3, 3, 3, 3, 3, 3, 3, 3, 3, 3, 3, 3, 3, 3, 3, 3, 3, 3, 3, 3, 3, 3, 3, 3, 3, 3, 3, 3, 3, 3, 3, 3, 3, 3, 3, 3, 3, 3, 3, 3, 3, 3, 3, 3, 3, 3, 3, 3, 3, 3, 3, 3, 3, 3, 3, 3, 3, 3, 3, 3, 3, 3, 3, 3, 3, 3, 3, 3, 3, 3, 3, 3, 3, 3, 3, 3, 3, 3, 3, 3, 3, 3, 3, 3, 3, 3, 3, 3, 3, 3, 3, 3, 3, 3, 3, 3, 3, 3, 3, 3, 3, 3, 3, 3, 3, 3, 3, 3, 3, 3, 3, 3, 3, 3, 3, 3, 3, 3, 3, 3, 3, 3, 3, 3, 3, 3, 3, 3, 3, 3, 3, 3, 3, 3, 3, 3, 3, 3, 3, 3, 3, 3, 3, 3, 3, 3, 3, 3, 3, 3, 3, 3, 3, 3, 3, 3, 3, 3, 3, 3, 3, 3, 3, 3, 3, 3, 3, 3, 3, 3, 3, 3, 3, 3, 3, 3, 3, 3, 3, 3, 3, 3, 3, 3, 3, 3, 3, 3, 3, 3, 3, 3, 3, 3, 3, 3, 3, 3, 3, 3, 3, 3, 3, 3, 3, 3, 3, 3, 3, 3, 3, 3, 3, 3, 3, 3, 3, 3, 3, 3, 3, 3, 3, 3, 3, 3, 3, 3, 3, 3, 3, 3, 3, 3, 3, 3, 3, 3, 3, 3, 3, 3, 3, 3, 3, 3, 3, 3, 3, 3, 3, 3, 3, 3, 3, 3, 3, 3, 3, 3, 3, 3, 3, 3, 3, 3, 3, 3, 3, 3, 3, 3, 3, 3, 3, 3, 3, 3, 3, 3, 3, 3, 3, 3, 3, 3, 3, 3, 3, 3, 3, 3, 3, 3, 3, 3, 3, 3, 3, 3, 3, 3, 3, 3, 3, 3, 3, 3, 3, 3, 3, 3, 3, 3, 3, 3, 3, 3, 3, 3, 3, 3, 3, 3, 3, 3, 3, 3, 3, 3, 3, 3, 3, 3, 3, 3, 3, 3, 3, 3, 3, 3, 3, 3, 3, 3, 3, 3, 3, 3, 3, 3, 3, 3, 3, 3, 3, 3, 3, 3, 3, 3, 3, 3, 3, 3, 3, 3, 3, 3, 3, 3, 3, 3, 3, 3, 3, 3, 3, 3, 3, 3, 3, 3, 3, 3, 3, 3, 3, 3, 3, 3, 3, 3, 3, 3, 3, 3, 3, 3, 3, 3, 3, 3, 3, 3, 3, 3, 3, 3, 3, 3, 3, 3, 3, 3, 3, 3, 3, 3, 3, 3, 3, 3, 3, 3, 3, 3, 3, 3, 3, 3, 3, 3, 3, 3, 3, 3, 3, 3, 3, 3, 3, 3, 3, 3, 3, 3, 3, 3, 3, 3, 3, 3, 3, 3, 3, 3, 3, 3, 3, 3, 3, 3, 3, 3, 3, 3, 3, 3, 3, 3, 3, 3, 3, 3, 3, 3, 3, 3, 3, 3, 3, 3, 3]
                    int[] faceVertexIndices = [32, 19, 37, 12, 36, 35, 3, 20, 19, 5, 21, 20, 7, 22, 21, 22, 11, 23, 16, 28, 27, 15, 27, 26, 25, 15, 26, 24, 14, 25, 37, 13, 34, 16, 23, 17, 15, 22, 16, 14, 21, 15, 19, 14, 13, 39, 13, 24, 29, 35, 38, 31, 24, 2, 18, 33, 36, 2, 25, 4, 4, 26, 6, 26, 8, 6, 27, 10, 8, 39, 30, 38, 37, 35, 36, 37, 33, 32, 34, 38, 35, 0, 38, 30, 72, 59, 77, 52, 76, 75, 43, 60, 59, 45, 61, 60, 61, 49, 62, 62, 51, 63, 56, 68, 67, 55, 67, 66, 54, 66, 65, 53, 65, 64, 77, 53, 74, 56, 63, 57, 55, 62, 56, 60, 55, 54, 59, 54, 53, 79, 53, 64, 69, 75, 78, 71, 64, 42, 58, 73, 76, 42, 65, 44, 44, 66, 46, 66, 48, 46, 67, 50, 48, 79, 70, 78, 77, 75, 76, 77, 73, 72, 74, 78, 75, 40, 78, 70, 108, 83, 109, 83, 110, 109, 85, 111, 110, 87, 112, 111, 89, 113, 112, 113, 93, 114, 99, 106, 105, 104, 99, 105, 97, 104, 103, 102, 97, 103, 101, 96, 102, 107, 95, 101, 80, 101, 82, 82, 102, 84, 84, 103, 86, 86, 104, 88, 104, 90, 88, 105, 92, 90, 99, 114, 100, 98, 113, 99, 97, 112, 98, 110, 97, 96, 109, 96, 95, 94, 109, 95, 152, 118, 134, 127, 151, 150, 134, 120, 135, 135, 122, 136, 122, 137, 136, 137, 126, 138, 131, 143, 142, 130, 142, 141, 140, 130, 141, 139, 129, 140, 149, 134, 128, 137, 132, 131, 130, 137, 131, 129, 136, 130, 128, 135, 129, 154, 128, 139, 144, 150, 153, 146, 139, 117, 133, 148, 151, 117, 140, 119, 119, 141, 121, 141, 123, 121, 142, 125, 123, 154, 145, 153, 152, 150, 151, 147, 151, 148, 149, 153, 150, 115, 153, 145, 183, 158, 184, 158, 185, 184, 160, 186, 185, 162, 187, 186, 164, 188, 187, 166, 189, 188, 174, 181, 180, 179, 174, 180, 178, 173, 179, 177, 172, 178, 176, 171, 177, 182, 170, 176, 155, 176, 157, 157, 177, 159, 159, 178, 161, 161, 179, 163, 163, 180, 165, 180, 167, 165, 188, 175, 174, 173, 188, 174, 172, 187, 173, 185, 172, 171, 184, 171, 170, 169, 184, 170, 222, 209, 227, 202, 226, 225, 193, 210, 209, 195, 211, 210, 197, 212, 211, 212, 201, 213, 206, 218, 217, 205, 217, 216, 215, 205, 216, 214, 204, 215, 227, 203, 224, 206, 213, 207, 211, 206, 205, 210, 205, 204, 209, 204, 203, 229, 203, 214, 219, 225, 228, 221, 214, 192, 208, 223, 226, 192, 215, 194, 194, 216, 196, 196, 217, 198, 217, 200, 198, 229, 220, 228, 227, 225, 226, 227, 223, 222, 224, 228, 225, 190, 228, 220, 262, 249, 267, 242, 266, 265, 233, 250, 249, 235, 251, 250, 237, 252, 251, 252, 241, 253, 246, 258, 257, 245, 257, 256, 255, 245, 256, 254, 244, 255, 267, 243, 264, 246, 253, 247, 251, 246, 245, 250, 245, 244, 249, 244, 243, 269, 243, 254, 259, 265, 268, 261, 254, 232, 248, 263, 266, 232, 255, 234, 234, 256, 236, 236, 257, 238, 257, 240, 238, 269, 260, 268, 267, 265, 266, 262, 266, 263, 264, 268, 265, 230, 268, 260, 302, 289, 307, 282, 306, 305, 273, 290, 289, 290, 277, 291, 291, 279, 292, 292, 281, 293, 286, 298, 297, 296, 286, 297, 295, 285, 296, 294, 284, 295, 307, 283, 304, 286, 293, 287, 285, 292, 286, 284, 291, 285, 289, 284, 283, 309, 283, 294, 299, 305, 308, 301, 294, 272, 288, 303, 306, 272, 295, 274, 274, 296, 276, 276, 297, 278, 297, 280, 278, 309, 300, 308, 307, 305, 306, 307, 303, 302, 304, 308, 305, 270, 308, 300, 342, 329, 347, 322, 346, 345, 329, 315, 330, 330, 317, 331, 331, 319, 332, 332, 321, 333, 326, 338, 337, 336, 326, 337, 335, 325, 336, 334, 324, 335, 344, 329, 323, 326, 333, 327, 325, 332, 326, 324, 331, 325, 323, 330, 324, 349, 323, 334, 339, 345, 348, 341, 334, 312, 328, 343, 346, 312, 335, 314, 314, 336, 316, 316, 337, 318, 337, 320, 318, 349, 340, 348, 347, 345, 346, 342, 346, 343, 344, 348, 345, 310, 348, 340, 32, 3, 19, 12, 18, 36, 3, 5, 20, 5, 7, 21, 7, 9, 22, 22, 9, 11, 16, 17, 28, 15, 16, 27, 25, 14, 15, 24, 13, 14, 37, 19, 13, 16, 22, 23, 15, 21, 22, 14, 20, 21, 19, 20, 14, 39, 34, 13, 29, 12, 35, 31, 39, 24, 18, 1, 33, 2, 24, 25, 4, 25, 26, 26, 27, 8, 27, 28, 10, 39, 31, 30, 37, 34, 35, 37, 36, 33, 34, 39, 38, 0, 29, 38, 72, 43, 59, 52, 58, 76, 43, 45, 60, 45, 47, 61, 61, 47, 49, 62, 49, 51, 56, 57, 68, 55, 56, 67, 54, 55, 66, 53, 54, 65, 77, 59, 53, 56, 62, 63, 55, 61, 62, 60, 61, 55, 59, 60, 54, 79, 74, 53, 69, 52, 75, 71, 79, 64, 58, 41, 73, 42, 64, 65, 44, 65, 66, 66, 67, 48, 67, 68, 50, 79, 71, 70, 77, 74, 75, 77, 76, 73, 74, 79, 78, 40, 69, 78, 108, 81, 83, 83, 85, 110, 85, 87, 111, 87, 89, 112, 89, 91, 113, 113, 91, 93, 99, 100, 106, 104, 98, 99, 97, 98, 104, 102, 96, 97, 101, 95, 96, 107, 94, 95, 80, 107, 101, 82, 101, 102, 84, 102, 103, 86, 103, 104, 104, 105, 90, 105, 106, 92, 99, 113, 114, 98, 112, 113, 97, 111, 112, 110, 111, 97, 109, 110, 96, 94, 108, 109, 152, 147, 118, 127, 133, 151, 134, 118, 120, 135, 120, 122, 122, 124, 137, 137, 124, 126, 131, 132, 143, 130, 131, 142, 140, 129, 130, 139, 128, 129, 149, 152, 134, 137, 138, 132, 130, 136, 137, 129, 135, 136, 128, 134, 135, 154, 149, 128, 144, 127, 150, 146, 154, 139, 133, 116, 148, 117, 139, 140, 119, 140, 141, 141, 142, 123, 142, 143, 125, 154, 146, 145, 152, 149, 150, 147, 152, 151, 149, 154, 153, 115, 144, 153, 183, 156, 158, 158, 160, 185, 160, 162, 186, 162, 164, 187, 164, 166, 188, 166, 168, 189, 174, 175, 181, 179, 173, 174, 178, 172, 173, 177, 171, 172, 176, 170, 171, 182, 169, 170, 155, 182, 176, 157, 176, 177, 159, 177, 178, 161, 178, 179, 163, 179, 180, 180, 181, 167, 188, 189, 175, 173, 187, 188, 172, 186, 187, 185, 186, 172, 184, 185, 171, 169, 183, 184, 222, 193, 209, 202, 208, 226, 193, 195, 210, 195, 197, 211, 197, 199, 212, 212, 199, 201, 206, 207, 218, 205, 206, 217, 215, 204, 205, 214, 203, 204, 227, 209, 203, 206, 212, 213, 211, 212, 206, 210, 211, 205, 209, 210, 204, 229, 224, 203, 219, 202, 225, 221, 229, 214, 208, 191, 223, 192, 214, 215, 194, 215, 216, 196, 216, 217, 217, 218, 200, 229, 221, 220, 227, 224, 225, 227, 226, 223, 224, 229, 228, 190, 219, 228, 262, 233, 249, 242, 248, 266, 233, 235, 250, 235, 237, 251, 237, 239, 252, 252, 239, 241, 246, 247, 258, 245, 246, 257, 255, 244, 245, 254, 243, 244, 267, 249, 243, 246, 252, 253, 251, 252, 246, 250, 251, 245, 249, 250, 244, 269, 264, 243, 259, 242, 265, 261, 269, 254, 248, 231, 263, 232, 254, 255, 234, 255, 256, 236, 256, 257, 257, 258, 240, 269, 261, 260, 267, 264, 265, 262, 267, 266, 264, 269, 268, 230, 259, 268, 302, 273, 289, 282, 288, 306, 273, 275, 290, 290, 275, 277, 291, 277, 279, 292, 279, 281, 286, 287, 298, 296, 285, 286, 295, 284, 285, 294, 283, 284, 307, 289, 283, 286, 292, 293, 285, 291, 292, 284, 290, 291, 289, 290, 284, 309, 304, 283, 299, 282, 305, 301, 309, 294, 288, 271, 303, 272, 294, 295, 274, 295, 296, 276, 296, 297, 297, 298, 280, 309, 301, 300, 307, 304, 305, 307, 306, 303, 304, 309, 308, 270, 299, 308, 342, 313, 329, 322, 328, 346, 329, 313, 315, 330, 315, 317, 331, 317, 319, 332, 319, 321, 326, 327, 338, 336, 325, 326, 335, 324, 325, 334, 323, 324, 344, 347, 329, 326, 332, 333, 325, 331, 332, 324, 330, 331, 323, 329, 330, 349, 344, 323, 339, 322, 345, 341, 349, 334, 328, 311, 343, 312, 334, 335, 314, 335, 336, 316, 336, 337, 337, 338, 320, 349, 341, 340, 347, 344, 345, 342, 347, 346, 344, 349, 348, 310, 339, 348]
                    rel material:binding = </ReferenceTarget/XForms/World/Looks/plants_atlas_6_material>
                    normal3f[] normals = [(-0.9497303, -0.020131035, 0.31242144), (-0.8555095, 0.052869603, 0.5150808), (-0.94888264, -0.018781856, 0.31506976), (-0.9981016, -0.06147818, -0.003696492), (-0.9929199, -0.061094753, 0.10186977), (-0.9927288, -0.05750099, 0.10575052), (-0.8536312, 0.049035154, 0.5185646), (-0.7364181, 0.1406948, 0.661735), (-0.8555095, 0.052869603, 0.5150808), (-0.73342484, 0.14973179, 0.663075), (-0.60356605, 0.10450253, 0.79043484), (-0.7364181, 0.1406948, 0.661735), (-0.5882258, 0.06913376, 0.80573624), (-0.63206774, -0.004636508, 0.77489924), (-0.60356605, 0.10450253, 0.79043484), (-0.63206774, -0.004636508, 0.77489924), (-0.7121007, -0.110963754, 0.693253), (-0.72324806, -0.08121413, 0.6857962), (-0.6542086, -0.052285384, 0.7545047), (-0.71432525, 0.015560421, 0.6996408), (-0.6313271, -0.15178372, 0.76051813), (-0.62082815, -0.08887458, 0.7788926), (-0.6313271, -0.15178372, 0.76051813), (-0.6106653, -0.3232471, 0.7229102), (-0.75257206, -0.10499611, 0.6500854), (-0.62082815, -0.08887458, 0.7788926), (-0.6106653, -0.3232471, 0.7229102), (-0.8429831, -0.086219296, 0.53098553), (-0.7359345, 0.017284267, 0.6768321), (-0.75257206, -0.10499611, 0.6500854), (-0.94888264, -0.018781856, 0.31506976), (-0.8490457, -0.008201765, 0.52825564), (-0.9440452, -0.0400667, 0.32737365), (-0.6542086, -0.052285384, 0.7545047), (-0.72324806, -0.08121413, 0.6857962), (-0.7317266, -0.02252588, 0.681226), (-0.62082815, -0.08887458, 0.7788926), (-0.63206774, -0.004636508, 0.77489924), (-0.6542086, -0.052285384, 0.7545047), (-0.7359345, 0.017284267, 0.6768321), (-0.60356605, 0.10450253, 0.79043484), (-0.62082815, -0.08887458, 0.7788926), (-0.8555095, 0.052869603, 0.5150808), (-0.7359345, 0.017284267, 0.6768321), (-0.8490457, -0.008201765, 0.52825564), (-0.94268525, -0.06877046, 0.32651973), (-0.8490457, -0.008201765, 0.52825564), (-0.8429831, -0.086219296, 0.53098553), (-0.9981116, -0.06132787, -0.0034804996), (-0.9927288, -0.05750099, 0.10575052), (-0.99235964, -0.059127655, 0.108288), (-0.93667996, -0.07302814, 0.34248728), (-0.8429831, -0.086219296, 0.53098553), (-0.834558, -0.091807514, 0.54321665), (-0.99810153, -0.06147809, -0.003709661), (-0.9933671, -0.05787066, 0.09936246), (-0.9929199, -0.061094753, 0.10186977), (-0.834558, -0.091807514, 0.54321665), (-0.75257206, -0.10499611, 0.6500854), (-0.77588063, -0.13482793, 0.61630404), (-0.77588063, -0.13482793, 0.61630404), (-0.6106653, -0.3232471, 0.7229102), (-0.60541075, -0.38629338, 0.6958846), (-0.6106653, -0.3232471, 0.7229102), (-0.5867333, -0.20394605, 0.7836772), (-0.60541075, -0.38629338, 0.6958846), (-0.6313271, -0.15178372, 0.76051813), (-0.69874525, 0.01764325, 0.7151529), (-0.5867333, -0.20394605, 0.7836772), (-0.94268525, -0.06877046, 0.32651973), (-0.9902211, -0.05993806, 0.12597474), (-0.99235964, -0.059127655, 0.108288), (-0.94888264, -0.018781856, 0.31506976), (-0.9927288, -0.05750099, 0.10575052), (-0.9929199, -0.061094753, 0.10186977), (-0.94888264, -0.018781856, 0.31506976), (-0.9933671, -0.05787066, 0.09936246), (-0.9497303, -0.020131035, 0.31242144), (-0.9440452, -0.0400667, 0.32737365), (-0.99235964, -0.059127655, 0.108288), (-0.9927288, -0.05750099, 0.10575052), (-0.998119, -0.061221864, -0.0032113562), (-0.99235964, -0.059127655, 0.108288), (-0.9902211, -0.05993806, 0.12597474), (-0.036967456, -0.9539417, 0.29770565), (-0.096297905, -0.8855907, 0.45437425), (-0.03926833, -0.9529362, 0.30061707), (-0.000004224771, -0.99999315, -0.003696449), (-0.00006799526, -0.9947977, 0.10186988), (-0.0036434096, -0.994386, 0.10575062), (-0.085371196, -0.8855316, 0.45666775), (-0.15782477, -0.7974506, 0.58237773), (-0.096297905, -0.8855907, 0.45437425), (-0.15606949, -0.793203, 0.58861816), (-0.09257114, -0.6652427, 0.74086624), (-0.15782477, -0.7974506, 0.58237773), (-0.09257114, -0.6652427, 0.74086624), (0.049288224, -0.6280849, 0.7765823), (0.025592191, -0.6471115, 0.7619658), (0.025592191, -0.6471115, 0.7619658), (0.0961423, -0.6696225, 0.7364525), (0.048884653, -0.677255, 0.73412263), (0.020303704, -0.6566693, 0.7539053), (-0.077224284, -0.6587059, 0.7484269), (0.062092938, -0.639813, 0.76601815), (0.06174499, -0.6811718, 0.7295152), (0.062092938, -0.639813, 0.76601815), (0.23086855, -0.6875203, 0.6884878), (-0.048896268, -0.817881, 0.5733061), (0.23086855, -0.6875203, 0.6884878), (0.014712969, -0.83519894, 0.54975104), (-0.04196298, -0.8850931, 0.46351844), (0.014712969, -0.83519894, 0.54975104), (0.026897099, -0.8850299, 0.46475652), (-0.03926833, -0.9529362, 0.30061707), (-0.04196298, -0.8850931, 0.46351844), (-0.017868713, -0.9498595, 0.31216606), (0.020303704, -0.6566693, 0.7539053), (0.048884653, -0.677255, 0.73412263), (-0.026839774, -0.6792971, 0.7333725), (0.06174499, -0.6811718, 0.7295152), (0.025592191, -0.6471115, 0.7619658), (0.020303704, -0.6566693, 0.7539053), (-0.15782477, -0.7974506, 0.58237773), (0.06174499, -0.6811718, 0.7295152), (-0.048896268, -0.817881, 0.5733061), (-0.096297905, -0.8855907, 0.45437425), (-0.048896268, -0.817881, 0.5733061), (-0.04196298, -0.8850931, 0.46351844), (0.0105055, -0.95026064, 0.31127864), (-0.04196298, -0.8850931, 0.46351844), (0.026897099, -0.8850299, 0.46475652), (-0.0001550409, -0.9999939, -0.0034805238), (-0.0036434096, -0.994386, 0.10575062), (-0.0019974776, -0.99411756, 0.10828802), (0.014221698, -0.94572437, 0.3246586), (0.026897099, -0.8850299, 0.46475652), (0.026958495, -0.8812001, 0.47197425), (-0.000004278621, -0.9999931, -0.0037095668), (-0.0033137754, -0.9950457, 0.099362545), (-0.00006799526, -0.9947977, 0.10186988), (0.026958495, -0.8812001, 0.47197425), (0.014712969, -0.83519894, 0.54975104), (0.03784208, -0.841216, 0.53937334), (0.03784208, -0.841216, 0.53937334), (0.23086855, -0.6875203, 0.6884878), (0.28679177, -0.7076533, 0.64573777), (0.23086855, -0.6875203, 0.6884878), (0.08454965, -0.61315835, 0.7854223), (0.28679177, -0.7076533, 0.64573777), (0.062092938, -0.639813, 0.76601815), (-0.09401621, -0.64005464, 0.7625556), (0.08454965, -0.61315835, 0.7854223), (0.0105055, -0.95026064, 0.31127864), (-0.001057124, -0.9920329, 0.12597477), (-0.0019974776, -0.99411756, 0.10828802), (-0.03926833, -0.9529362, 0.30061707), (-0.0036434096, -0.994386, 0.10575062), (-0.00006799526, -0.9947977, 0.10186988), (-0.03926833, -0.9529362, 0.30061707), (-0.0033137754, -0.9950457, 0.099362545), (-0.036967456, -0.9539417, 0.29770565), (-0.017868713, -0.9498595, 0.31216606), (-0.0019974776, -0.99411756, 0.10828802), (-0.0036434096, -0.994386, 0.10575062), (-0.00026152012, -0.9999948, -0.0032113912), (-0.0019974776, -0.99411756, 0.10828802), (-0.001057124, -0.9920329, 0.12597477), (-0.51883686, -0.5795027, 0.6284783), (-0.45222834, -0.5914406, 0.66759837), (-0.44980392, -0.601438, 0.66026413), (-0.45222834, -0.5914406, 0.66759837), (-0.3242319, -0.49916184, 0.80356157), (-0.44980392, -0.601438, 0.66026413), (-0.30409074, -0.4486002, 0.8404087), (0.2623824, -0.5129975, 0.817306), (-0.3242319, -0.49916184, 0.80356157), (0.38020942, -0.5304375, 0.7576785), (0.41606948, -0.39526415, 0.8189337), (0.2623824, -0.5129975, 0.817306), (0.43364394, -0.38748714, 0.813515), (0.53926396, -0.5180232, 0.6639626), (0.41606948, -0.39526415, 0.8189337), (0.53926396, -0.5180232, 0.6639626), (0.35700467, -0.6719642, 0.64885426), (0.3133293, -0.6577287, 0.6849946), (0.35480413, -0.44833043, 0.8204351), (0.29018077, -0.71108663, 0.64043015), (0.4644839, -0.5942232, 0.65662277), (0.43817377, -0.51735747, 0.7350817), (0.35480413, -0.44833043, 0.8204351), (0.4644839, -0.5942232, 0.65662277), (0.15892747, -0.5445936, 0.8235046), (0.43817377, -0.51735747, 0.7350817), (0.10262321, -0.55989075, 0.8221865), (0.042005863, -0.79749155, 0.60186595), (0.15892747, -0.5445936, 0.8235046), (0.10262321, -0.55989075, 0.8221865), (-0.46836215, -0.6268235, 0.62267905), (-0.10490611, -0.7159009, 0.6902757), (0.042005863, -0.79749155, 0.60186595), (-0.53092444, -0.5848859, 0.6132111), (-0.46077806, -0.5990835, 0.65481496), (-0.46836215, -0.6268235, 0.62267905), (-0.531639, -0.58815026, 0.6094581), (-0.46836215, -0.6268235, 0.62267905), (-0.4792215, -0.648218, 0.59174335), (-0.4792215, -0.648218, 0.59174335), (0.042005863, -0.79749155, 0.60186595), (0.04493595, -0.7530113, 0.65647155), (0.04493595, -0.7530113, 0.65647155), (0.10262321, -0.55989075, 0.8221865), (0.1293789, -0.58198947, 0.80283827), (0.1293789, -0.58198947, 0.80283827), (0.43817377, -0.51735747, 0.7350817), (0.4150651, -0.6037341, 0.68060726), (0.43817377, -0.51735747, 0.7350817), (0.63122547, -0.6276197, 0.4556841), (0.4150651, -0.6037341, 0.68060726), (0.4644839, -0.5942232, 0.65662277), (0.29497224, -0.7831753, 0.5473826), (0.63122547, -0.6276197, 0.4556841), (0.35480413, -0.44833043, 0.8204351), (0.3133293, -0.6577287, 0.6849946), (0.3267258, -0.6840328, 0.65218824), (0.4677941, -0.44480196, 0.76375383), (0.53926396, -0.5180232, 0.6639626), (0.35480413, -0.44833043, 0.8204351), (0.15892747, -0.5445936, 0.8235046), (0.41606948, -0.39526415, 0.8189337), (0.4677941, -0.44480196, 0.76375383), (-0.3242319, -0.49916184, 0.80356157), (0.15892747, -0.5445936, 0.8235046), (-0.10490611, -0.7159009, 0.6902757), (-0.44980392, -0.601438, 0.66026413), (-0.10490611, -0.7159009, 0.6902757), (-0.46077806, -0.5990835, 0.65481496), (-0.5247919, -0.58259785, 0.62062335), (-0.44980392, -0.601438, 0.66026413), (-0.46077806, -0.5990835, 0.65481496), (0.7139122, -0.50428903, 0.48582083), (0.6709345, -0.3461166, 0.65578204), (0.64697814, -0.35439074, 0.6751492), (0.70943767, -0.65785056, 0.2528454), (0.72945166, -0.6019998, 0.3248023), (0.7248494, -0.60603464, 0.32759032), (0.64697814, -0.35439074, 0.6751492), (0.49967098, -0.14013717, 0.8548043), (0.49257645, -0.1424151, 0.8585373), (0.49257645, -0.1424151, 0.8585373), (0.36127913, 0.1448212, 0.9211429), (0.33998856, 0.113357745, 0.9335726), (0.36127913, 0.1448212, 0.9211429), (0.34668875, 0.17168719, 0.9221336), (0.33998856, 0.113357745, 0.9335726), (0.34668875, 0.17168719, 0.9221336), (0.44576538, 0.1111737, 0.88821936), (0.4227412, 0.091788106, 0.90159017), (0.34566903, 0.15368062, 0.92568636), (0.33023447, 0.054761942, 0.942309), (0.36119866, 0.20161882, 0.91043144), (0.4120103, 0.18918972, 0.8913219), (0.36119866, 0.20161882, 0.91043144), (0.5204129, 0.26604924, 0.81141126), (0.5781929, -0.07539478, 0.81240916), (0.4120103, 0.18918972, 0.8913219), (0.5204129, 0.26604924, 0.81141126), (0.6888602, -0.28561887, 0.6662533), (0.52962434, -0.095032625, 0.842892), (0.5781929, -0.07539478, 0.81240916), (0.716802, -0.4963551, 0.48972085), (0.64697814, -0.35439074, 0.6751492), (0.66168916, -0.32405686, 0.676132), (0.34668875, 0.17168719, 0.9221336), (0.37427184, 0.058257595, 0.9254873), (0.34566903, 0.15368062, 0.92568636), (0.4120103, 0.18918972, 0.8913219), (0.34668875, 0.17168719, 0.9221336), (0.34566903, 0.15368062, 0.92568636), (0.52962434, -0.095032625, 0.842892), (0.33998856, 0.113357745, 0.9335726), (0.4120103, 0.18918972, 0.8913219), (0.66168916, -0.32405686, 0.676132), (0.49257645, -0.1424151, 0.8585373), (0.52962434, -0.095032625, 0.842892), (0.7286866, -0.4823772, 0.48613587), (0.66168916, -0.32405686, 0.676132), (0.6888602, -0.28561887, 0.6662533), (0.707816, -0.6603628, 0.25083372), (0.7248494, -0.60603464, 0.32759032), (0.7220446, -0.6090937, 0.3281106), (0.72358376, -0.4679439, 0.5074003), (0.6888602, -0.28561887, 0.6662533), (0.66767156, -0.26400387, 0.6960722), (0.71075726, -0.6553865, 0.25552407), (0.730663, -0.60596544, 0.31454334), (0.72945166, -0.6019998, 0.3248023), (0.66767156, -0.26400387, 0.6960722), (0.5781929, -0.07539478, 0.81240916), (0.58809525, -0.095004775, 0.8031925), (0.58809525, -0.095004775, 0.8031925), (0.5204129, 0.26604924, 0.81141126), (0.5442945, 0.2851749, 0.78893524), (0.5204129, 0.26604924, 0.81141126), (0.34422296, 0.2633531, 0.90119684), (0.5442945, 0.2851749, 0.78893524), (0.36119866, 0.20161882, 0.91043144), (0.30259413, 0.06676486, 0.95077825), (0.34422296, 0.2633531, 0.90119684), (0.7286866, -0.4823772, 0.48613587), (0.7213697, -0.60012573, 0.3456514), (0.7220446, -0.6090937, 0.3281106), (0.7139122, -0.50428903, 0.48582083), (0.7248494, -0.60603464, 0.32759032), (0.72945166, -0.6019998, 0.3248023), (0.7227891, -0.5025066, 0.47440806), (0.72945166, -0.6019998, 0.3248023), (0.730663, -0.60596544, 0.31454334), (0.716802, -0.4963551, 0.48972085), (0.7220446, -0.6090937, 0.3281106), (0.7248494, -0.60603464, 0.32759032), (0.70691866, -0.66170055, 0.2498368), (0.7220446, -0.6090937, 0.3281106), (0.7213697, -0.60012573, 0.3456514), (-0.7735996, 0.211135, 0.59746605), (-0.76267433, 0.15285598, 0.6284607), (-0.76865077, 0.14826295, 0.62224925), (-0.76267433, 0.15285598, 0.6284607), (-0.6678858, 0.097679846, 0.73782605), (-0.76865077, 0.14826295, 0.62224925), (-0.6246057, 0.09704866, 0.77488667), (-0.59274316, -0.354625, 0.72311586), (-0.6678858, 0.097679846, 0.73782605), (-0.570108, -0.49359655, 0.6567642), (-0.49395674, -0.42853463, 0.756548), (-0.59274316, -0.354625, 0.72311586), (-0.47245586, -0.51619685, 0.7143712), (-0.29941323, -0.62963223, 0.7168786), (-0.49395674, -0.42853463, 0.756548), (-0.26859638, -0.81052154, 0.52049106), (-0.36016935, -0.5803605, 0.7303833), (-0.29941323, -0.62963223, 0.7168786), (-0.25870535, -0.31291658, 0.913868), (-0.35986075, -0.47448373, 0.80334634), (-0.327715, -0.42047295, 0.8460528), (-0.51601833, -0.33494702, 0.7883753), (-0.25870535, -0.31291658, 0.913868), (-0.327715, -0.42047295, 0.8460528), (-0.6215114, -0.17585336, 0.76341283), (-0.51217085, -0.3797931, 0.7703494), (-0.51601833, -0.33494702, 0.7883753), (-0.7540566, -0.3425271, 0.5604229), (-0.62012213, -0.2143015, 0.7546677), (-0.6215114, -0.17585336, 0.76341283), (-0.79395163, 0.16055459, 0.58639836), (-0.753184, -0.18551068, 0.6311099), (-0.7540566, -0.3425271, 0.5604229), (-0.78161263, 0.22082701, 0.583367), (-0.77013415, 0.16153418, 0.61709017), (-0.79395163, 0.16055459, 0.58639836), (-0.7840224, 0.22092772, 0.58008605), (-0.79395163, 0.16055459, 0.58639836), (-0.81519014, 0.16479091, 0.55525565), (-0.81519014, 0.16479091, 0.55525565), (-0.7540566, -0.3425271, 0.5604229), (-0.71191317, -0.3192396, 0.6255124), (-0.71191317, -0.3192396, 0.6255124), (-0.6215114, -0.17585336, 0.76341283), (-0.62792003, -0.15894546, 0.7618745), (-0.62792003, -0.15894546, 0.7618745), (-0.51601833, -0.33494702, 0.7883753), (-0.51673716, -0.3651244, 0.7743816), (-0.51673716, -0.3651244, 0.7743816), (-0.327715, -0.42047295, 0.8460528), (-0.38836443, -0.602589, 0.69717973), (-0.327715, -0.42047295, 0.8460528), (-0.44999045, -0.4761379, 0.75551385), (-0.38836443, -0.602589, 0.69717973), (-0.29941323, -0.62963223, 0.7168786), (-0.30873805, -0.5331932, 0.7876458), (-0.25870535, -0.31291658, 0.913868), (-0.51217085, -0.3797931, 0.7703494), (-0.29941323, -0.62963223, 0.7168786), (-0.25870535, -0.31291658, 0.913868), (-0.62012213, -0.2143015, 0.7546677), (-0.49395674, -0.42853463, 0.756548), (-0.51217085, -0.3797931, 0.7703494), (-0.6678858, 0.097679846, 0.73782605), (-0.62012213, -0.2143015, 0.7546677), (-0.753184, -0.18551068, 0.6311099), (-0.76865077, 0.14826295, 0.62224925), (-0.753184, -0.18551068, 0.6311099), (-0.77013415, 0.16153418, 0.61709017), (-0.77789855, 0.21607631, 0.59007186), (-0.76865077, 0.14826295, 0.62224925), (-0.77013415, 0.16153418, 0.61709017), (0.7032559, 0.429314, 0.5666752), (0.6234202, 0.36032215, 0.693913), (0.69970334, 0.42655525, 0.57311946), (0.824372, 0.44468987, 0.35023102), (0.77936435, 0.45516357, 0.43060112), (0.7784872, 0.4522497, 0.435233), (0.62039334, 0.37198988, 0.6904605), (0.5195311, 0.26784572, 0.8113853), (0.6234202, 0.36032215, 0.693913), (0.51000726, 0.27534387, 0.81491), (0.30454877, 0.27503416, 0.91192454), (0.5195311, 0.26784572, 0.8113853), (0.2566075, 0.31810948, 0.91266584), (0.17281424, 0.3625437, 0.91580415), (0.30454877, 0.27503416, 0.91192454), (0.17281424, 0.3625437, 0.91580415), (0.18900609, 0.46546134, 0.8646517), (0.21519239, 0.42776376, 0.8779011), (0.20766994, 0.34653765, 0.9147595), (0.23996975, 0.30129138, 0.9228423), (0.15949784, 0.40240905, 0.9014585), (0.2884372, 0.40010613, 0.86989605), (0.15949784, 0.40240905, 0.9014585), (0.24629356, 0.59070486, 0.7683796), (0.4825444, 0.4294624, 0.7633564), (0.2884372, 0.40010613, 0.86989605), (0.24629356, 0.59070486, 0.7683796), (0.57200354, 0.4594595, 0.67949164), (0.48845762, 0.3501319, 0.79926014), (0.4825444, 0.4294624, 0.7633564), (0.69970334, 0.42655525, 0.57311946), (0.59847987, 0.40427953, 0.69165003), (0.68454325, 0.44387498, 0.5782522), (0.20766994, 0.34653765, 0.9147595), (0.21519239, 0.42776376, 0.8779011), (0.24507403, 0.36091107, 0.89982325), (0.30454877, 0.27503416, 0.91192454), (0.20766994, 0.34653765, 0.9147595), (0.2884372, 0.40010613, 0.86989605), (0.5195311, 0.26784572, 0.8113853), (0.2884372, 0.40010613, 0.86989605), (0.48845762, 0.3501319, 0.79926014), (0.6234202, 0.36032215, 0.693913), (0.48845762, 0.3501319, 0.79926014), (0.59847987, 0.40427953, 0.69165003), (0.67515177, 0.46571833, 0.5720809), (0.59847987, 0.40427953, 0.69165003), (0.57200354, 0.4594595, 0.67949164), (0.82432616, 0.4445862, 0.3504705), (0.7784872, 0.4522497, 0.435233), (0.7762195, 0.4538324, 0.43762934), (0.66736925, 0.46626282, 0.5807041), (0.57200354, 0.4594595, 0.67949164), (0.56383246, 0.45371988, 0.6900951), (0.82437897, 0.44468787, 0.35021722), (0.7818303, 0.45201227, 0.4294489), (0.77936435, 0.45516357, 0.43060112), (0.56383246, 0.45371988, 0.6900951), (0.4825444, 0.4294624, 0.7633564), (0.5088949, 0.43565893, 0.7424468), (0.5088949, 0.43565893, 0.7424468), (0.24629356, 0.59070486, 0.7683796), (0.25429112, 0.6018225, 0.7570639), (0.25429112, 0.6018225, 0.7570639), (0.15949784, 0.40240905, 0.9014585), (0.1116321, 0.39040592, 0.9138498), (0.15949784, 0.40240905, 0.9014585), (0.22724211, 0.28042135, 0.93259037), (0.1116321, 0.39040592, 0.9138498), (0.67515177, 0.46571833, 0.5720809), (0.7672721, 0.45548946, 0.45146745), (0.7762195, 0.4538324, 0.43762934), (0.69970334, 0.42655525, 0.57311946), (0.7784872, 0.4522497, 0.435233), (0.77936435, 0.45516357, 0.43060112), (0.69970334, 0.42655525, 0.57311946), (0.7818303, 0.45201227, 0.4294489), (0.7032559, 0.429314, 0.5666752), (0.68454325, 0.44387498, 0.5782522), (0.7762195, 0.4538324, 0.43762934), (0.7784872, 0.4522497, 0.435233), (0.8242417, 0.4445287, 0.35074192), (0.7762195, 0.4538324, 0.43762934), (0.7672721, 0.45548946, 0.45146745), (-0.2910751, 0.719041, 0.6310747), (-0.23761132, 0.6300921, 0.7392732), (-0.287093, 0.7175056, 0.63463634), (-0.26962, 0.8954885, 0.3541262), (-0.28903037, 0.84705997, 0.4460391), (-0.2887756, 0.84409064, 0.45179597), (-0.24495663, 0.6351968, 0.7324762), (-0.16097341, 0.6121677, 0.77416945), (-0.23761132, 0.6300921, 0.7392732), (-0.18489502, 0.6109158, 0.7698023), (-0.20546402, 0.46185163, 0.8628311), (-0.16097341, 0.6121677, 0.77416945), (-0.29099327, 0.42493692, 0.8571765), (-0.31287017, 0.23188767, 0.92105395), (-0.20546402, 0.46185163, 0.8628311), (-0.31287017, 0.23188767, 0.92105395), (-0.40312737, 0.15260829, 0.9023298), (-0.3375082, 0.18064655, 0.92382634), (-0.20029706, 0.26676527, 0.942718), (-0.17583108, 0.19830275, 0.9642403), (-0.21294756, 0.22646362, 0.9504565), (-0.2644017, 0.46289125, 0.8460635), (-0.21294756, 0.22646362, 0.9504565), (-0.41861567, 0.44586536, 0.7911795), (-0.28325865, 0.5932023, 0.75357515), (-0.2644017, 0.46289125, 0.8460635), (-0.41861567, 0.44586536, 0.7911795), (-0.36942202, 0.5896012, 0.7182602), (-0.2278951, 0.59494585, 0.7707809), (-0.28325865, 0.5932023, 0.75357515), (-0.287093, 0.7175056, 0.63463634), (-0.29998645, 0.6096295, 0.73373026), (-0.3106581, 0.70586747, 0.6365867), (-0.20029706, 0.26676527, 0.942718), (-0.3375082, 0.18064655, 0.92382634), (-0.25415197, 0.20396699, 0.9454123), (-0.20546402, 0.46185163, 0.8628311), (-0.20029706, 0.26676527, 0.942718), (-0.2644017, 0.46289125, 0.8460635), (-0.16097341, 0.6121677, 0.77416945), (-0.2644017, 0.46289125, 0.8460635), (-0.2278951, 0.59494585, 0.7707809), (-0.23761132, 0.6300921, 0.7392732), (-0.2278951, 0.59494585, 0.7707809), (-0.29998645, 0.6096295, 0.73373026), (-0.3382605, 0.7011862, 0.62762874), (-0.29998645, 0.6096295, 0.73373026), (-0.36942202, 0.5896012, 0.7182602), (-0.26961285, 0.89537096, 0.35442874), (-0.2887756, 0.84409064, 0.45179597), (-0.29118633, 0.84232837, 0.4535344), (-0.34516266, 0.6864979, 0.639987), (-0.36942202, 0.5896012, 0.7182602), (-0.36802304, 0.57990795, 0.72681904), (-0.2695461, 0.8955608, 0.3539996), (-0.28943422, 0.849834, 0.4404656), (-0.28903037, 0.84705997, 0.4460391), (-0.36802304, 0.57990795, 0.72681904), (-0.28325865, 0.5932023, 0.75357515), (-0.27091208, 0.6105973, 0.7441623), (-0.27091208, 0.6105973, 0.7441623), (-0.41861567, 0.44586536, 0.7911795), (-0.4054275, 0.45197922, 0.79457116), (-0.4054275, 0.45197922, 0.79457116), (-0.21294756, 0.22646362, 0.9504565), (-0.18972912, 0.18645814, 0.963969), (-0.21294756, 0.22646362, 0.9504565), (-0.14520882, 0.19242448, 0.9705087), (-0.18972912, 0.18645814, 0.963969), (-0.3382605, 0.7011862, 0.62762874), (-0.2958633, 0.83180726, 0.46963984), (-0.29118633, 0.84232837, 0.4535344), (-0.287093, 0.7175056, 0.63463634), (-0.2887756, 0.84409064, 0.45179597), (-0.28903037, 0.84705997, 0.4460391), (-0.2910751, 0.719041, 0.6310747), (-0.28903037, 0.84705997, 0.4460391), (-0.28943422, 0.849834, 0.4404656), (-0.3106581, 0.70586747, 0.6365867), (-0.29118633, 0.84232837, 0.4535344), (-0.2887756, 0.84409064, 0.45179597), (-0.26962072, 0.8952521, 0.35472283), (-0.29118633, 0.84232837, 0.4535344), (-0.2958633, 0.83180726, 0.46963984), (0.5076145, 0.81690615, 0.27384645), (0.5242567, 0.66675323, 0.52971214), (0.510233, 0.8148697, 0.2750449), (0.4886923, 0.8715086, -0.040652476), (0.48880985, 0.87063533, 0.055308167), (0.49418506, 0.8673064, 0.059672266), (0.5179461, 0.6642652, 0.53896534), (0.508342, 0.4325674, 0.74463), (0.5242567, 0.66675323, 0.52971214), (0.508342, 0.4325674, 0.74463), (0.37798235, 0.27527672, 0.88394123), (0.37374932, 0.29667172, 0.87880445), (0.37374932, 0.29667172, 0.87880445), (0.32738426, 0.3932689, 0.85916185), (0.333673, 0.4498452, 0.8284333), (0.333673, 0.4498452, 0.8284333), (0.30773416, 0.6168489, 0.72442883), (0.32669535, 0.6203981, 0.7130051), (0.23881717, 0.5107062, 0.82592106), (0.36544216, 0.5909017, 0.71922684), (0.10100724, 0.5507341, 0.82854664), (-0.02215439, 0.5810217, 0.8135865), (0.23881717, 0.5107062, 0.82592106), (0.10100724, 0.5507341, 0.82854664), (0.29252493, 0.6000506, 0.74455917), (0.19767947, 0.43628234, 0.8778271), (-0.02215439, 0.5810217, 0.8135865), (0.41102558, 0.72757787, 0.5492616), (0.40381595, 0.5006292, 0.76570433), (0.29252493, 0.6000506, 0.74455917), (0.510233, 0.8148697, 0.2750449), (0.47431958, 0.6909634, 0.5455187), (0.49340114, 0.82055724, 0.28851554), (0.23881717, 0.5107062, 0.82592106), (0.32669535, 0.6203981, 0.7130051), (0.36214337, 0.61189425, 0.70316255), (0.19767947, 0.43628234, 0.8778271), (0.333673, 0.4498452, 0.8284333), (0.23881717, 0.5107062, 0.82592106), (0.40381595, 0.5006292, 0.76570433), (0.37374932, 0.29667172, 0.87880445), (0.19767947, 0.43628234, 0.8778271), (0.5242567, 0.66675323, 0.52971214), (0.40381595, 0.5006292, 0.76570433), (0.47431958, 0.6909634, 0.5455187), (0.4741235, 0.8316728, 0.2890108), (0.47431958, 0.6909634, 0.5455187), (0.41102558, 0.72757787, 0.5492616), (0.4896021, 0.87102437, -0.04007852), (0.49418506, 0.8673064, 0.059672266), (0.49530423, 0.86643445, 0.06296872), (0.47122884, 0.8275035, 0.3052561), (0.41102558, 0.72757787, 0.5492616), (0.4019532, 0.72288954, 0.56201816), (0.48778787, 0.8720086, -0.040791668), (0.49071947, 0.8696231, 0.054314934), (0.48880985, 0.87063533, 0.055308167), (0.4019532, 0.72288954, 0.56201816), (0.29252493, 0.6000506, 0.74455917), (0.26736945, 0.6495283, 0.7117771), (0.26736945, 0.6495283, 0.7117771), (-0.02215439, 0.5810217, 0.8135865), (-0.082266115, 0.61164314, 0.78684497), (-0.082266115, 0.61164314, 0.78684497), (0.10100724, 0.5507341, 0.82854664), (0.03370745, 0.5450051, 0.8377549), (0.10100724, 0.5507341, 0.82854664), (0.34024787, 0.5910346, 0.7313751), (0.03370745, 0.5450051, 0.8377549), (0.4741235, 0.8316728, 0.2890108), (0.49604636, 0.8648409, 0.07738282), (0.49530423, 0.86643445, 0.06296872), (0.510233, 0.8148697, 0.2750449), (0.49418506, 0.8673064, 0.059672266), (0.48880985, 0.87063533, 0.055308167), (0.510233, 0.8148697, 0.2750449), (0.49071947, 0.8696231, 0.054314934), (0.5076145, 0.81690615, 0.27384645), (0.49340114, 0.82055724, 0.28851554), (0.49530423, 0.86643445, 0.06296872), (0.49418506, 0.8673064, 0.059672266), (0.49041086, 0.8705931, -0.039558534), (0.49530423, 0.86643445, 0.06296872), (0.49604636, 0.8648409, 0.07738282), (0.8814961, 0.47137234, -0.027800262), (0.87732863, 0.43933308, 0.19308291), (0.8811017, 0.47227082, -0.024899662), (0.85569155, 0.42634124, -0.29330054), (0.866922, 0.4530234, -0.20788445), (0.8672301, 0.45497894, -0.20225264), (0.87732863, 0.43933308, 0.19308291), (0.84942377, 0.35960215, 0.3862195), (0.8388826, 0.37443227, 0.395065), (0.8388826, 0.37443227, 0.395065), (0.75076956, 0.4187467, 0.51087785), (0.7523149, 0.41873044, 0.508613), (0.7523149, 0.41873044, 0.508613), (0.70756763, 0.5066271, 0.4926227), (0.7361373, 0.5017803, 0.45422286), (0.7361373, 0.5017803, 0.45422286), (0.7309064, 0.5814818, 0.35728803), (0.75392556, 0.55423975, 0.35272437), (0.70889133, 0.5468172, 0.44549292), (0.7936243, 0.468543, 0.38810825), (0.6441937, 0.6196495, 0.44838485), (0.5117767, 0.7534656, 0.41276413), (0.70889133, 0.5468172, 0.44549292), (0.6441937, 0.6196495, 0.44838485), (0.7228625, 0.58352137, 0.37009817), (0.66080594, 0.583112, 0.47256306), (0.5117767, 0.7534656, 0.41276413), (0.8012595, 0.56194466, 0.20542997), (0.7844099, 0.4795384, 0.3933751), (0.7228625, 0.58352137, 0.37009817), (0.8727463, 0.4878597, -0.01751617), (0.87732863, 0.43933308, 0.19308291), (0.8474587, 0.48877028, 0.20716488), (0.70889133, 0.5468172, 0.44549292), (0.75392556, 0.55423975, 0.35272437), (0.7861719, 0.5038622, 0.35784993), (0.66080594, 0.583112, 0.47256306), (0.7361373, 0.5017803, 0.45422286), (0.70889133, 0.5468172, 0.44549292), (0.7844099, 0.4795384, 0.3933751), (0.7523149, 0.41873044, 0.508613), (0.66080594, 0.583112, 0.47256306), (0.8474587, 0.48877028, 0.20716488), (0.8388826, 0.37443227, 0.395065), (0.7844099, 0.4795384, 0.3933751), (0.8563189, 0.51616186, -0.017170664), (0.8474587, 0.48877028, 0.20716488), (0.8012595, 0.56194466, 0.20542997), (0.85521704, 0.42750356, -0.29299247), (0.8672301, 0.45497894, -0.20225264), (0.8659272, 0.4584367, -0.20001493), (0.85241425, 0.5228622, -0.0022509478), (0.8012595, 0.56194466, 0.20542997), (0.7902792, 0.56931156, 0.22659026), (0.8562332, 0.42512444, -0.29348597), (0.8661127, 0.4514408, -0.21459262), (0.866922, 0.4530234, -0.20788445), (0.7902792, 0.56931156, 0.22659026), (0.7228625, 0.58352137, 0.37009817), (0.71783525, 0.60527104, 0.3440344), (0.71783525, 0.60527104, 0.3440344), (0.5117767, 0.7534656, 0.41276413), (0.47454855, 0.7850404, 0.39813977), (0.47454855, 0.7850404, 0.39813977), (0.6441937, 0.6196495, 0.44838485), (0.60372853, 0.64053506, 0.4745807), (0.6441937, 0.6196495, 0.44838485), (0.785638, 0.4659724, 0.40699217), (0.60372853, 0.64053506, 0.4745807), (0.8563189, 0.51616186, -0.017170664), (0.86608773, 0.46501002, -0.18346022), (0.8659272, 0.4584367, -0.20001493), (0.8811017, 0.47227082, -0.024899662), (0.8672301, 0.45497894, -0.20225264), (0.866922, 0.4530234, -0.20788445), (0.8814961, 0.47137234, -0.027800262), (0.866922, 0.4530234, -0.20788445), (0.8661127, 0.4514408, -0.21459262), (0.8727463, 0.4878597, -0.01751617), (0.8659272, 0.4584367, -0.20001493), (0.8672301, 0.45497894, -0.20225264), (0.85498166, 0.42817596, -0.29269725), (0.8659272, 0.4584367, -0.20001493), (0.86608773, 0.46501002, -0.18346022), (-0.9497303, -0.020131035, 0.31242144), (-0.8536312, 0.049035154, 0.5185646), (-0.8555095, 0.052869603, 0.5150808), (-0.9981016, -0.06147818, -0.003696492), (-0.99810153, -0.06147809, -0.003709661), (-0.9929199, -0.061094753, 0.10186977), (-0.8536312, 0.049035154, 0.5185646), (-0.73342484, 0.14973179, 0.663075), (-0.7364181, 0.1406948, 0.661735), (-0.73342484, 0.14973179, 0.663075), (-0.5882258, 0.06913376, 0.80573624), (-0.60356605, 0.10450253, 0.79043484), (-0.5882258, 0.06913376, 0.80573624), (-0.59728336, -0.029784495, 0.8014771), (-0.63206774, -0.004636508, 0.77489924), (-0.63206774, -0.004636508, 0.77489924), (-0.59728336, -0.029784495, 0.8014771), (-0.7121007, -0.110963754, 0.693253), (-0.6542086, -0.052285384, 0.7545047), (-0.7317266, -0.02252588, 0.681226), (-0.71432525, 0.015560421, 0.6996408), (-0.62082815, -0.08887458, 0.7788926), (-0.6542086, -0.052285384, 0.7545047), (-0.6313271, -0.15178372, 0.76051813), (-0.75257206, -0.10499611, 0.6500854), (-0.7359345, 0.017284267, 0.6768321), (-0.62082815, -0.08887458, 0.7788926), (-0.8429831, -0.086219296, 0.53098553), (-0.8490457, -0.008201765, 0.52825564), (-0.7359345, 0.017284267, 0.6768321), (-0.94888264, -0.018781856, 0.31506976), (-0.8555095, 0.052869603, 0.5150808), (-0.8490457, -0.008201765, 0.52825564), (-0.6542086, -0.052285384, 0.7545047), (-0.63206774, -0.004636508, 0.77489924), (-0.72324806, -0.08121413, 0.6857962), (-0.62082815, -0.08887458, 0.7788926), (-0.60356605, 0.10450253, 0.79043484), (-0.63206774, -0.004636508, 0.77489924), (-0.7359345, 0.017284267, 0.6768321), (-0.7364181, 0.1406948, 0.661735), (-0.60356605, 0.10450253, 0.79043484), (-0.8555095, 0.052869603, 0.5150808), (-0.7364181, 0.1406948, 0.661735), (-0.7359345, 0.017284267, 0.6768321), (-0.94268525, -0.06877046, 0.32651973), (-0.9440452, -0.0400667, 0.32737365), (-0.8490457, -0.008201765, 0.52825564), (-0.9981116, -0.06132787, -0.0034804996), (-0.9981016, -0.06147818, -0.003696492), (-0.9927288, -0.05750099, 0.10575052), (-0.93667996, -0.07302814, 0.34248728), (-0.94268525, -0.06877046, 0.32651973), (-0.8429831, -0.086219296, 0.53098553), (-0.99810153, -0.06147809, -0.003709661), (-0.9981013, -0.06148236, -0.0037160546), (-0.9933671, -0.05787066, 0.09936246), (-0.834558, -0.091807514, 0.54321665), (-0.8429831, -0.086219296, 0.53098553), (-0.75257206, -0.10499611, 0.6500854), (-0.77588063, -0.13482793, 0.61630404), (-0.75257206, -0.10499611, 0.6500854), (-0.6106653, -0.3232471, 0.7229102), (-0.6106653, -0.3232471, 0.7229102), (-0.6313271, -0.15178372, 0.76051813), (-0.5867333, -0.20394605, 0.7836772), (-0.6313271, -0.15178372, 0.76051813), (-0.71432525, 0.015560421, 0.6996408), (-0.69874525, 0.01764325, 0.7151529), (-0.94268525, -0.06877046, 0.32651973), (-0.93667996, -0.07302814, 0.34248728), (-0.9902211, -0.05993806, 0.12597474), (-0.94888264, -0.018781856, 0.31506976), (-0.9440452, -0.0400667, 0.32737365), (-0.9927288, -0.05750099, 0.10575052), (-0.94888264, -0.018781856, 0.31506976), (-0.9929199, -0.061094753, 0.10186977), (-0.9933671, -0.05787066, 0.09936246), (-0.9440452, -0.0400667, 0.32737365), (-0.94268525, -0.06877046, 0.32651973), (-0.99235964, -0.059127655, 0.108288), (-0.998119, -0.061221864, -0.0032113562), (-0.9981116, -0.06132787, -0.0034804996), (-0.99235964, -0.059127655, 0.108288), (-0.036967456, -0.9539417, 0.29770565), (-0.085371196, -0.8855316, 0.45666775), (-0.096297905, -0.8855907, 0.45437425), (-0.000004224771, -0.99999315, -0.003696449), (-0.000004278621, -0.9999931, -0.0037095668), (-0.00006799526, -0.9947977, 0.10186988), (-0.085371196, -0.8855316, 0.45666775), (-0.15606949, -0.793203, 0.58861816), (-0.15782477, -0.7974506, 0.58237773), (-0.15606949, -0.793203, 0.58861816), (-0.06418879, -0.64946043, 0.75768125), (-0.09257114, -0.6652427, 0.74086624), (-0.09257114, -0.6652427, 0.74086624), (-0.06418879, -0.64946043, 0.75768125), (0.049288224, -0.6280849, 0.7765823), (0.025592191, -0.6471115, 0.7619658), (0.049288224, -0.6280849, 0.7765823), (0.0961423, -0.6696225, 0.7364525), (0.020303704, -0.6566693, 0.7539053), (-0.026839774, -0.6792971, 0.7333725), (-0.077224284, -0.6587059, 0.7484269), (0.06174499, -0.6811718, 0.7295152), (0.020303704, -0.6566693, 0.7539053), (0.062092938, -0.639813, 0.76601815), (-0.048896268, -0.817881, 0.5733061), (0.06174499, -0.6811718, 0.7295152), (0.23086855, -0.6875203, 0.6884878), (-0.04196298, -0.8850931, 0.46351844), (-0.048896268, -0.817881, 0.5733061), (0.014712969, -0.83519894, 0.54975104), (-0.03926833, -0.9529362, 0.30061707), (-0.096297905, -0.8855907, 0.45437425), (-0.04196298, -0.8850931, 0.46351844), (0.020303704, -0.6566693, 0.7539053), (0.025592191, -0.6471115, 0.7619658), (0.048884653, -0.677255, 0.73412263), (0.06174499, -0.6811718, 0.7295152), (-0.09257114, -0.6652427, 0.74086624), (0.025592191, -0.6471115, 0.7619658), (-0.15782477, -0.7974506, 0.58237773), (-0.09257114, -0.6652427, 0.74086624), (0.06174499, -0.6811718, 0.7295152), (-0.096297905, -0.8855907, 0.45437425), (-0.15782477, -0.7974506, 0.58237773), (-0.048896268, -0.817881, 0.5733061), (0.0105055, -0.95026064, 0.31127864), (-0.017868713, -0.9498595, 0.31216606), (-0.04196298, -0.8850931, 0.46351844), (-0.0001550409, -0.9999939, -0.0034805238), (-0.000004224771, -0.99999315, -0.003696449), (-0.0036434096, -0.994386, 0.10575062), (0.014221698, -0.94572437, 0.3246586), (0.0105055, -0.95026064, 0.31127864), (0.026897099, -0.8850299, 0.46475652), (-0.000004278621, -0.9999931, -0.0037095668), (1.6748024e-7, -0.999993, -0.003715971), (-0.0033137754, -0.9950457, 0.099362545), (0.026958495, -0.8812001, 0.47197425), (0.026897099, -0.8850299, 0.46475652), (0.014712969, -0.83519894, 0.54975104), (0.03784208, -0.841216, 0.53937334), (0.014712969, -0.83519894, 0.54975104), (0.23086855, -0.6875203, 0.6884878), (0.23086855, -0.6875203, 0.6884878), (0.062092938, -0.639813, 0.76601815), (0.08454965, -0.61315835, 0.7854223), (0.062092938, -0.639813, 0.76601815), (-0.077224284, -0.6587059, 0.7484269), (-0.09401621, -0.64005464, 0.7625556), (0.0105055, -0.95026064, 0.31127864), (0.014221698, -0.94572437, 0.3246586), (-0.001057124, -0.9920329, 0.12597477), (-0.03926833, -0.9529362, 0.30061707), (-0.017868713, -0.9498595, 0.31216606), (-0.0036434096, -0.994386, 0.10575062), (-0.03926833, -0.9529362, 0.30061707), (-0.00006799526, -0.9947977, 0.10186988), (-0.0033137754, -0.9950457, 0.099362545), (-0.017868713, -0.9498595, 0.31216606), (0.0105055, -0.95026064, 0.31127864), (-0.0019974776, -0.99411756, 0.10828802), (-0.00026152012, -0.9999948, -0.0032113912), (-0.0001550409, -0.9999939, -0.0034805238), (-0.0019974776, -0.99411756, 0.10828802), (-0.51883686, -0.5795027, 0.6284783), (-0.51889735, -0.57511514, 0.6324461), (-0.45222834, -0.5914406, 0.66759837), (-0.45222834, -0.5914406, 0.66759837), (-0.30409074, -0.4486002, 0.8404087), (-0.3242319, -0.49916184, 0.80356157), (-0.30409074, -0.4486002, 0.8404087), (0.38020942, -0.5304375, 0.7576785), (0.2623824, -0.5129975, 0.817306), (0.38020942, -0.5304375, 0.7576785), (0.43364394, -0.38748714, 0.813515), (0.41606948, -0.39526415, 0.8189337), (0.43364394, -0.38748714, 0.813515), (0.66618353, -0.5647251, 0.48711914), (0.53926396, -0.5180232, 0.6639626), (0.53926396, -0.5180232, 0.6639626), (0.66618353, -0.5647251, 0.48711914), (0.35700467, -0.6719642, 0.64885426), (0.35480413, -0.44833043, 0.8204351), (0.3267258, -0.6840328, 0.65218824), (0.29018077, -0.71108663, 0.64043015), (0.43817377, -0.51735747, 0.7350817), (0.4677941, -0.44480196, 0.76375383), (0.35480413, -0.44833043, 0.8204351), (0.15892747, -0.5445936, 0.8235046), (0.4677941, -0.44480196, 0.76375383), (0.43817377, -0.51735747, 0.7350817), (0.042005863, -0.79749155, 0.60186595), (-0.10490611, -0.7159009, 0.6902757), (0.15892747, -0.5445936, 0.8235046), (-0.46836215, -0.6268235, 0.62267905), (-0.46077806, -0.5990835, 0.65481496), (-0.10490611, -0.7159009, 0.6902757), (-0.53092444, -0.5848859, 0.6132111), (-0.5247919, -0.58259785, 0.62062335), (-0.46077806, -0.5990835, 0.65481496), (-0.531639, -0.58815026, 0.6094581), (-0.53092444, -0.5848859, 0.6132111), (-0.46836215, -0.6268235, 0.62267905), (-0.4792215, -0.648218, 0.59174335), (-0.46836215, -0.6268235, 0.62267905), (0.042005863, -0.79749155, 0.60186595), (0.04493595, -0.7530113, 0.65647155), (0.042005863, -0.79749155, 0.60186595), (0.10262321, -0.55989075, 0.8221865), (0.1293789, -0.58198947, 0.80283827), (0.10262321, -0.55989075, 0.8221865), (0.43817377, -0.51735747, 0.7350817), (0.43817377, -0.51735747, 0.7350817), (0.4644839, -0.5942232, 0.65662277), (0.63122547, -0.6276197, 0.4556841), (0.4644839, -0.5942232, 0.65662277), (0.29018077, -0.71108663, 0.64043015), (0.29497224, -0.7831753, 0.5473826), (0.35480413, -0.44833043, 0.8204351), (0.53926396, -0.5180232, 0.6639626), (0.3133293, -0.6577287, 0.6849946), (0.4677941, -0.44480196, 0.76375383), (0.41606948, -0.39526415, 0.8189337), (0.53926396, -0.5180232, 0.6639626), (0.15892747, -0.5445936, 0.8235046), (0.2623824, -0.5129975, 0.817306), (0.41606948, -0.39526415, 0.8189337), (-0.3242319, -0.49916184, 0.80356157), (0.2623824, -0.5129975, 0.817306), (0.15892747, -0.5445936, 0.8235046), (-0.44980392, -0.601438, 0.66026413), (-0.3242319, -0.49916184, 0.80356157), (-0.10490611, -0.7159009, 0.6902757), (-0.5247919, -0.58259785, 0.62062335), (-0.51883686, -0.5795027, 0.6284783), (-0.44980392, -0.601438, 0.66026413), (0.7139122, -0.50428903, 0.48582083), (0.7227891, -0.5025066, 0.47440806), (0.6709345, -0.3461166, 0.65578204), (0.70943767, -0.65785056, 0.2528454), (0.71075726, -0.6553865, 0.25552407), (0.72945166, -0.6019998, 0.3248023), (0.64697814, -0.35439074, 0.6751492), (0.6709345, -0.3461166, 0.65578204), (0.49967098, -0.14013717, 0.8548043), (0.49257645, -0.1424151, 0.8585373), (0.49967098, -0.14013717, 0.8548043), (0.36127913, 0.1448212, 0.9211429), (0.36127913, 0.1448212, 0.9211429), (0.36275086, 0.21190523, 0.90747344), (0.34668875, 0.17168719, 0.9221336), (0.34668875, 0.17168719, 0.9221336), (0.36275086, 0.21190523, 0.90747344), (0.44576538, 0.1111737, 0.88821936), (0.34566903, 0.15368062, 0.92568636), (0.37427184, 0.058257595, 0.9254873), (0.33023447, 0.054761942, 0.942309), (0.4120103, 0.18918972, 0.8913219), (0.34566903, 0.15368062, 0.92568636), (0.36119866, 0.20161882, 0.91043144), (0.5781929, -0.07539478, 0.81240916), (0.52962434, -0.095032625, 0.842892), (0.4120103, 0.18918972, 0.8913219), (0.6888602, -0.28561887, 0.6662533), (0.66168916, -0.32405686, 0.676132), (0.52962434, -0.095032625, 0.842892), (0.716802, -0.4963551, 0.48972085), (0.7139122, -0.50428903, 0.48582083), (0.64697814, -0.35439074, 0.6751492), (0.34668875, 0.17168719, 0.9221336), (0.4227412, 0.091788106, 0.90159017), (0.37427184, 0.058257595, 0.9254873), (0.4120103, 0.18918972, 0.8913219), (0.33998856, 0.113357745, 0.9335726), (0.34668875, 0.17168719, 0.9221336), (0.52962434, -0.095032625, 0.842892), (0.49257645, -0.1424151, 0.8585373), (0.33998856, 0.113357745, 0.9335726), (0.66168916, -0.32405686, 0.676132), (0.64697814, -0.35439074, 0.6751492), (0.49257645, -0.1424151, 0.8585373), (0.7286866, -0.4823772, 0.48613587), (0.716802, -0.4963551, 0.48972085), (0.66168916, -0.32405686, 0.676132), (0.707816, -0.6603628, 0.25083372), (0.70943767, -0.65785056, 0.2528454), (0.7248494, -0.60603464, 0.32759032), (0.72358376, -0.4679439, 0.5074003), (0.7286866, -0.4823772, 0.48613587), (0.6888602, -0.28561887, 0.6662533), (0.71075726, -0.6553865, 0.25552407), (0.7104291, -0.65510964, 0.2571417), (0.730663, -0.60596544, 0.31454334), (0.66767156, -0.26400387, 0.6960722), (0.6888602, -0.28561887, 0.6662533), (0.5781929, -0.07539478, 0.81240916), (0.58809525, -0.095004775, 0.8031925), (0.5781929, -0.07539478, 0.81240916), (0.5204129, 0.26604924, 0.81141126), (0.5204129, 0.26604924, 0.81141126), (0.36119866, 0.20161882, 0.91043144), (0.34422296, 0.2633531, 0.90119684), (0.36119866, 0.20161882, 0.91043144), (0.33023447, 0.054761942, 0.942309), (0.30259413, 0.06676486, 0.95077825), (0.7286866, -0.4823772, 0.48613587), (0.72358376, -0.4679439, 0.5074003), (0.7213697, -0.60012573, 0.3456514), (0.7139122, -0.50428903, 0.48582083), (0.716802, -0.4963551, 0.48972085), (0.7248494, -0.60603464, 0.32759032), (0.7227891, -0.5025066, 0.47440806), (0.7139122, -0.50428903, 0.48582083), (0.72945166, -0.6019998, 0.3248023), (0.716802, -0.4963551, 0.48972085), (0.7286866, -0.4823772, 0.48613587), (0.7220446, -0.6090937, 0.3281106), (0.70691866, -0.66170055, 0.2498368), (0.707816, -0.6603628, 0.25083372), (0.7220446, -0.6090937, 0.3281106), (-0.7735996, 0.211135, 0.59746605), (-0.7703925, 0.21223176, 0.60120964), (-0.76267433, 0.15285598, 0.6284607), (-0.76267433, 0.15285598, 0.6284607), (-0.6246057, 0.09704866, 0.77488667), (-0.6678858, 0.097679846, 0.73782605), (-0.6246057, 0.09704866, 0.77488667), (-0.570108, -0.49359655, 0.6567642), (-0.59274316, -0.354625, 0.72311586), (-0.570108, -0.49359655, 0.6567642), (-0.47245586, -0.51619685, 0.7143712), (-0.49395674, -0.42853463, 0.756548), (-0.47245586, -0.51619685, 0.7143712), (-0.26859638, -0.81052154, 0.52049106), (-0.29941323, -0.62963223, 0.7168786), (-0.26859638, -0.81052154, 0.52049106), (-0.43599156, -0.5257283, 0.7304253), (-0.36016935, -0.5803605, 0.7303833), (-0.25870535, -0.31291658, 0.913868), (-0.30873805, -0.5331932, 0.7876458), (-0.35986075, -0.47448373, 0.80334634), (-0.51601833, -0.33494702, 0.7883753), (-0.51217085, -0.3797931, 0.7703494), (-0.25870535, -0.31291658, 0.913868), (-0.6215114, -0.17585336, 0.76341283), (-0.62012213, -0.2143015, 0.7546677), (-0.51217085, -0.3797931, 0.7703494), (-0.7540566, -0.3425271, 0.5604229), (-0.753184, -0.18551068, 0.6311099), (-0.62012213, -0.2143015, 0.7546677), (-0.79395163, 0.16055459, 0.58639836), (-0.77013415, 0.16153418, 0.61709017), (-0.753184, -0.18551068, 0.6311099), (-0.78161263, 0.22082701, 0.583367), (-0.77789855, 0.21607631, 0.59007186), (-0.77013415, 0.16153418, 0.61709017), (-0.7840224, 0.22092772, 0.58008605), (-0.78161263, 0.22082701, 0.583367), (-0.79395163, 0.16055459, 0.58639836), (-0.81519014, 0.16479091, 0.55525565), (-0.79395163, 0.16055459, 0.58639836), (-0.7540566, -0.3425271, 0.5604229), (-0.71191317, -0.3192396, 0.6255124), (-0.7540566, -0.3425271, 0.5604229), (-0.6215114, -0.17585336, 0.76341283), (-0.62792003, -0.15894546, 0.7618745), (-0.6215114, -0.17585336, 0.76341283), (-0.51601833, -0.33494702, 0.7883753), (-0.51673716, -0.3651244, 0.7743816), (-0.51601833, -0.33494702, 0.7883753), (-0.327715, -0.42047295, 0.8460528), (-0.327715, -0.42047295, 0.8460528), (-0.35986075, -0.47448373, 0.80334634), (-0.44999045, -0.4761379, 0.75551385), (-0.29941323, -0.62963223, 0.7168786), (-0.36016935, -0.5803605, 0.7303833), (-0.30873805, -0.5331932, 0.7876458), (-0.51217085, -0.3797931, 0.7703494), (-0.49395674, -0.42853463, 0.756548), (-0.29941323, -0.62963223, 0.7168786), (-0.62012213, -0.2143015, 0.7546677), (-0.59274316, -0.354625, 0.72311586), (-0.49395674, -0.42853463, 0.756548), (-0.6678858, 0.097679846, 0.73782605), (-0.59274316, -0.354625, 0.72311586), (-0.62012213, -0.2143015, 0.7546677), (-0.76865077, 0.14826295, 0.62224925), (-0.6678858, 0.097679846, 0.73782605), (-0.753184, -0.18551068, 0.6311099), (-0.77789855, 0.21607631, 0.59007186), (-0.7735996, 0.211135, 0.59746605), (-0.76865077, 0.14826295, 0.62224925), (0.7032559, 0.429314, 0.5666752), (0.62039334, 0.37198988, 0.6904605), (0.6234202, 0.36032215, 0.693913), (0.824372, 0.44468987, 0.35023102), (0.82437897, 0.44468787, 0.35021722), (0.77936435, 0.45516357, 0.43060112), (0.62039334, 0.37198988, 0.6904605), (0.51000726, 0.27534387, 0.81491), (0.5195311, 0.26784572, 0.8113853), (0.51000726, 0.27534387, 0.81491), (0.2566075, 0.31810948, 0.91266584), (0.30454877, 0.27503416, 0.91192454), (0.2566075, 0.31810948, 0.91266584), (0.13639128, 0.4008573, 0.90593094), (0.17281424, 0.3625437, 0.91580415), (0.17281424, 0.3625437, 0.91580415), (0.13639128, 0.4008573, 0.90593094), (0.18900609, 0.46546134, 0.8646517), (0.20766994, 0.34653765, 0.9147595), (0.24507403, 0.36091107, 0.89982325), (0.23996975, 0.30129138, 0.9228423), (0.2884372, 0.40010613, 0.86989605), (0.20766994, 0.34653765, 0.9147595), (0.15949784, 0.40240905, 0.9014585), (0.4825444, 0.4294624, 0.7633564), (0.48845762, 0.3501319, 0.79926014), (0.2884372, 0.40010613, 0.86989605), (0.57200354, 0.4594595, 0.67949164), (0.59847987, 0.40427953, 0.69165003), (0.48845762, 0.3501319, 0.79926014), (0.69970334, 0.42655525, 0.57311946), (0.6234202, 0.36032215, 0.693913), (0.59847987, 0.40427953, 0.69165003), (0.20766994, 0.34653765, 0.9147595), (0.17281424, 0.3625437, 0.91580415), (0.21519239, 0.42776376, 0.8779011), (0.30454877, 0.27503416, 0.91192454), (0.17281424, 0.3625437, 0.91580415), (0.20766994, 0.34653765, 0.9147595), (0.5195311, 0.26784572, 0.8113853), (0.30454877, 0.27503416, 0.91192454), (0.2884372, 0.40010613, 0.86989605), (0.6234202, 0.36032215, 0.693913), (0.5195311, 0.26784572, 0.8113853), (0.48845762, 0.3501319, 0.79926014), (0.67515177, 0.46571833, 0.5720809), (0.68454325, 0.44387498, 0.5782522), (0.59847987, 0.40427953, 0.69165003), (0.82432616, 0.4445862, 0.3504705), (0.824372, 0.44468987, 0.35023102), (0.7784872, 0.4522497, 0.435233), (0.66736925, 0.46626282, 0.5807041), (0.67515177, 0.46571833, 0.5720809), (0.57200354, 0.4594595, 0.67949164), (0.82437897, 0.44468787, 0.35021722), (0.8243806, 0.44469106, 0.35020927), (0.7818303, 0.45201227, 0.4294489), (0.56383246, 0.45371988, 0.6900951), (0.57200354, 0.4594595, 0.67949164), (0.4825444, 0.4294624, 0.7633564), (0.5088949, 0.43565893, 0.7424468), (0.4825444, 0.4294624, 0.7633564), (0.24629356, 0.59070486, 0.7683796), (0.25429112, 0.6018225, 0.7570639), (0.24629356, 0.59070486, 0.7683796), (0.15949784, 0.40240905, 0.9014585), (0.15949784, 0.40240905, 0.9014585), (0.23996975, 0.30129138, 0.9228423), (0.22724211, 0.28042135, 0.93259037), (0.67515177, 0.46571833, 0.5720809), (0.66736925, 0.46626282, 0.5807041), (0.7672721, 0.45548946, 0.45146745), (0.69970334, 0.42655525, 0.57311946), (0.68454325, 0.44387498, 0.5782522), (0.7784872, 0.4522497, 0.435233), (0.69970334, 0.42655525, 0.57311946), (0.77936435, 0.45516357, 0.43060112), (0.7818303, 0.45201227, 0.4294489), (0.68454325, 0.44387498, 0.5782522), (0.67515177, 0.46571833, 0.5720809), (0.7762195, 0.4538324, 0.43762934), (0.8242417, 0.4445287, 0.35074192), (0.82432616, 0.4445862, 0.3504705), (0.7762195, 0.4538324, 0.43762934), (-0.2910751, 0.719041, 0.6310747), (-0.24495663, 0.6351968, 0.7324762), (-0.23761132, 0.6300921, 0.7392732), (-0.26962, 0.8954885, 0.3541262), (-0.2695461, 0.8955608, 0.3539996), (-0.28903037, 0.84705997, 0.4460391), (-0.24495663, 0.6351968, 0.7324762), (-0.18489502, 0.6109158, 0.7698023), (-0.16097341, 0.6121677, 0.77416945), (-0.18489502, 0.6109158, 0.7698023), (-0.29099327, 0.42493692, 0.8571765), (-0.20546402, 0.46185163, 0.8628311), (-0.29099327, 0.42493692, 0.8571765), (-0.40690947, 0.20692673, 0.8897225), (-0.31287017, 0.23188767, 0.92105395), (-0.31287017, 0.23188767, 0.92105395), (-0.40690947, 0.20692673, 0.8897225), (-0.40312737, 0.15260829, 0.9023298), (-0.20029706, 0.26676527, 0.942718), (-0.25415197, 0.20396699, 0.9454123), (-0.17583108, 0.19830275, 0.9642403), (-0.2644017, 0.46289125, 0.8460635), (-0.20029706, 0.26676527, 0.942718), (-0.21294756, 0.22646362, 0.9504565), (-0.28325865, 0.5932023, 0.75357515), (-0.2278951, 0.59494585, 0.7707809), (-0.2644017, 0.46289125, 0.8460635), (-0.36942202, 0.5896012, 0.7182602), (-0.29998645, 0.6096295, 0.73373026), (-0.2278951, 0.59494585, 0.7707809), (-0.287093, 0.7175056, 0.63463634), (-0.23761132, 0.6300921, 0.7392732), (-0.29998645, 0.6096295, 0.73373026), (-0.20029706, 0.26676527, 0.942718), (-0.31287017, 0.23188767, 0.92105395), (-0.3375082, 0.18064655, 0.92382634), (-0.20546402, 0.46185163, 0.8628311), (-0.31287017, 0.23188767, 0.92105395), (-0.20029706, 0.26676527, 0.942718), (-0.16097341, 0.6121677, 0.77416945), (-0.20546402, 0.46185163, 0.8628311), (-0.2644017, 0.46289125, 0.8460635), (-0.23761132, 0.6300921, 0.7392732), (-0.16097341, 0.6121677, 0.77416945), (-0.2278951, 0.59494585, 0.7707809), (-0.3382605, 0.7011862, 0.62762874), (-0.3106581, 0.70586747, 0.6365867), (-0.29998645, 0.6096295, 0.73373026), (-0.26961285, 0.89537096, 0.35442874), (-0.26962, 0.8954885, 0.3541262), (-0.2887756, 0.84409064, 0.45179597), (-0.34516266, 0.6864979, 0.639987), (-0.3382605, 0.7011862, 0.62762874), (-0.36942202, 0.5896012, 0.7182602), (-0.2695461, 0.8955608, 0.3539996), (-0.26957065, 0.8955877, 0.35391313), (-0.28943422, 0.849834, 0.4404656), (-0.36802304, 0.57990795, 0.72681904), (-0.36942202, 0.5896012, 0.7182602), (-0.28325865, 0.5932023, 0.75357515), (-0.27091208, 0.6105973, 0.7441623), (-0.28325865, 0.5932023, 0.75357515), (-0.41861567, 0.44586536, 0.7911795), (-0.4054275, 0.45197922, 0.79457116), (-0.41861567, 0.44586536, 0.7911795), (-0.21294756, 0.22646362, 0.9504565), (-0.21294756, 0.22646362, 0.9504565), (-0.17583108, 0.19830275, 0.9642403), (-0.14520882, 0.19242448, 0.9705087), (-0.3382605, 0.7011862, 0.62762874), (-0.34516266, 0.6864979, 0.639987), (-0.2958633, 0.83180726, 0.46963984), (-0.287093, 0.7175056, 0.63463634), (-0.3106581, 0.70586747, 0.6365867), (-0.2887756, 0.84409064, 0.45179597), (-0.2910751, 0.719041, 0.6310747), (-0.287093, 0.7175056, 0.63463634), (-0.28903037, 0.84705997, 0.4460391), (-0.3106581, 0.70586747, 0.6365867), (-0.3382605, 0.7011862, 0.62762874), (-0.29118633, 0.84232837, 0.4535344), (-0.26962072, 0.8952521, 0.35472283), (-0.26961285, 0.89537096, 0.35442874), (-0.29118633, 0.84232837, 0.4535344), (0.5076145, 0.81690615, 0.27384645), (0.5179461, 0.6642652, 0.53896534), (0.5242567, 0.66675323, 0.52971214), (0.4886923, 0.8715086, -0.040652476), (0.48778787, 0.8720086, -0.040791668), (0.48880985, 0.87063533, 0.055308167), (0.5179461, 0.6642652, 0.53896534), (0.52716446, 0.41132987, 0.74357605), (0.508342, 0.4325674, 0.74463), (0.508342, 0.4325674, 0.74463), (0.52716446, 0.41132987, 0.74357605), (0.37798235, 0.27527672, 0.88394123), (0.37374932, 0.29667172, 0.87880445), (0.37798235, 0.27527672, 0.88394123), (0.32738426, 0.3932689, 0.85916185), (0.333673, 0.4498452, 0.8284333), (0.32738426, 0.3932689, 0.85916185), (0.30773416, 0.6168489, 0.72442883), (0.23881717, 0.5107062, 0.82592106), (0.36214337, 0.61189425, 0.70316255), (0.36544216, 0.5909017, 0.71922684), (-0.02215439, 0.5810217, 0.8135865), (0.19767947, 0.43628234, 0.8778271), (0.23881717, 0.5107062, 0.82592106), (0.29252493, 0.6000506, 0.74455917), (0.40381595, 0.5006292, 0.76570433), (0.19767947, 0.43628234, 0.8778271), (0.41102558, 0.72757787, 0.5492616), (0.47431958, 0.6909634, 0.5455187), (0.40381595, 0.5006292, 0.76570433), (0.510233, 0.8148697, 0.2750449), (0.5242567, 0.66675323, 0.52971214), (0.47431958, 0.6909634, 0.5455187), (0.23881717, 0.5107062, 0.82592106), (0.333673, 0.4498452, 0.8284333), (0.32669535, 0.6203981, 0.7130051), (0.19767947, 0.43628234, 0.8778271), (0.37374932, 0.29667172, 0.87880445), (0.333673, 0.4498452, 0.8284333), (0.40381595, 0.5006292, 0.76570433), (0.508342, 0.4325674, 0.74463), (0.37374932, 0.29667172, 0.87880445), (0.5242567, 0.66675323, 0.52971214), (0.508342, 0.4325674, 0.74463), (0.40381595, 0.5006292, 0.76570433), (0.4741235, 0.8316728, 0.2890108), (0.49340114, 0.82055724, 0.28851554), (0.47431958, 0.6909634, 0.5455187), (0.4896021, 0.87102437, -0.04007852), (0.4886923, 0.8715086, -0.040652476), (0.49418506, 0.8673064, 0.059672266), (0.47122884, 0.8275035, 0.3052561), (0.4741235, 0.8316728, 0.2890108), (0.41102558, 0.72757787, 0.5492616), (0.48778787, 0.8720086, -0.040791668), (0.48728263, 0.87229013, -0.04081232), (0.49071947, 0.8696231, 0.054314934), (0.4019532, 0.72288954, 0.56201816), (0.41102558, 0.72757787, 0.5492616), (0.29252493, 0.6000506, 0.74455917), (0.26736945, 0.6495283, 0.7117771), (0.29252493, 0.6000506, 0.74455917), (-0.02215439, 0.5810217, 0.8135865), (-0.082266115, 0.61164314, 0.78684497), (-0.02215439, 0.5810217, 0.8135865), (0.10100724, 0.5507341, 0.82854664), (0.10100724, 0.5507341, 0.82854664), (0.36544216, 0.5909017, 0.71922684), (0.34024787, 0.5910346, 0.7313751), (0.4741235, 0.8316728, 0.2890108), (0.47122884, 0.8275035, 0.3052561), (0.49604636, 0.8648409, 0.07738282), (0.510233, 0.8148697, 0.2750449), (0.49340114, 0.82055724, 0.28851554), (0.49418506, 0.8673064, 0.059672266), (0.510233, 0.8148697, 0.2750449), (0.48880985, 0.87063533, 0.055308167), (0.49071947, 0.8696231, 0.054314934), (0.49340114, 0.82055724, 0.28851554), (0.4741235, 0.8316728, 0.2890108), (0.49530423, 0.86643445, 0.06296872), (0.49041086, 0.8705931, -0.039558534), (0.4896021, 0.87102437, -0.04007852), (0.49530423, 0.86643445, 0.06296872), (0.8814961, 0.47137234, -0.027800262), (0.87581265, 0.44993696, 0.17466788), (0.87732863, 0.43933308, 0.19308291), (0.85569155, 0.42634124, -0.29330054), (0.8562332, 0.42512444, -0.29348597), (0.866922, 0.4530234, -0.20788445), (0.87732863, 0.43933308, 0.19308291), (0.87581265, 0.44993696, 0.17466788), (0.84942377, 0.35960215, 0.3862195), (0.8388826, 0.37443227, 0.395065), (0.84942377, 0.35960215, 0.3862195), (0.75076956, 0.4187467, 0.51087785), (0.7523149, 0.41873044, 0.508613), (0.75076956, 0.4187467, 0.51087785), (0.70756763, 0.5066271, 0.4926227), (0.7361373, 0.5017803, 0.45422286), (0.70756763, 0.5066271, 0.4926227), (0.7309064, 0.5814818, 0.35728803), (0.70889133, 0.5468172, 0.44549292), (0.7861719, 0.5038622, 0.35784993), (0.7936243, 0.468543, 0.38810825), (0.5117767, 0.7534656, 0.41276413), (0.66080594, 0.583112, 0.47256306), (0.70889133, 0.5468172, 0.44549292), (0.7228625, 0.58352137, 0.37009817), (0.7844099, 0.4795384, 0.3933751), (0.66080594, 0.583112, 0.47256306), (0.8012595, 0.56194466, 0.20542997), (0.8474587, 0.48877028, 0.20716488), (0.7844099, 0.4795384, 0.3933751), (0.8727463, 0.4878597, -0.01751617), (0.8811017, 0.47227082, -0.024899662), (0.87732863, 0.43933308, 0.19308291), (0.70889133, 0.5468172, 0.44549292), (0.7361373, 0.5017803, 0.45422286), (0.75392556, 0.55423975, 0.35272437), (0.66080594, 0.583112, 0.47256306), (0.7523149, 0.41873044, 0.508613), (0.7361373, 0.5017803, 0.45422286), (0.7844099, 0.4795384, 0.3933751), (0.8388826, 0.37443227, 0.395065), (0.7523149, 0.41873044, 0.508613), (0.8474587, 0.48877028, 0.20716488), (0.87732863, 0.43933308, 0.19308291), (0.8388826, 0.37443227, 0.395065), (0.8563189, 0.51616186, -0.017170664), (0.8727463, 0.4878597, -0.01751617), (0.8474587, 0.48877028, 0.20716488), (0.85521704, 0.42750356, -0.29299247), (0.85569155, 0.42634124, -0.29330054), (0.8672301, 0.45497894, -0.20225264), (0.85241425, 0.5228622, -0.0022509478), (0.8563189, 0.51616186, -0.017170664), (0.8012595, 0.56194466, 0.20542997), (0.8562332, 0.42512444, -0.29348597), (0.85638034, 0.4247273, -0.29363132), (0.8661127, 0.4514408, -0.21459262), (0.7902792, 0.56931156, 0.22659026), (0.8012595, 0.56194466, 0.20542997), (0.7228625, 0.58352137, 0.37009817), (0.71783525, 0.60527104, 0.3440344), (0.7228625, 0.58352137, 0.37009817), (0.5117767, 0.7534656, 0.41276413), (0.47454855, 0.7850404, 0.39813977), (0.5117767, 0.7534656, 0.41276413), (0.6441937, 0.6196495, 0.44838485), (0.6441937, 0.6196495, 0.44838485), (0.7936243, 0.468543, 0.38810825), (0.785638, 0.4659724, 0.40699217), (0.8563189, 0.51616186, -0.017170664), (0.85241425, 0.5228622, -0.0022509478), (0.86608773, 0.46501002, -0.18346022), (0.8811017, 0.47227082, -0.024899662), (0.8727463, 0.4878597, -0.01751617), (0.8672301, 0.45497894, -0.20225264), (0.8814961, 0.47137234, -0.027800262), (0.8811017, 0.47227082, -0.024899662), (0.866922, 0.4530234, -0.20788445), (0.8727463, 0.4878597, -0.01751617), (0.8563189, 0.51616186, -0.017170664), (0.8659272, 0.4584367, -0.20001493), (0.85498166, 0.42817596, -0.29269725), (0.85521704, 0.42750356, -0.29299247), (0.8659272, 0.4584367, -0.20001493)] (
                        interpolation = "faceVarying"
                    )
                    point3f[] points = [(0.023312815, 0.016018607, 0.017529314), (0.026072267, -0.028778195, 0.017529314), (0.06795311, 0.07694529, 0.22409159), (0.07171869, -0.038814288, 0.22652262), (0.14663407, 0.098606385, 0.32459456), (0.1454283, -0.048072524, 0.32997674), (0.18880218, 0.10937145, 0.3975267), (0.21021254, -0.052959356, 0.38700387), (0.30232176, 0.118635856, 0.45686844), (0.30555472, -0.05953859, 0.44138026), (0.4009153, 0.041327585, 0.54271317), (0.39942753, -0.018617615, 0.5384563), (0.024692541, -0.0063797943, 0.017529314), (0.07290013, 0.019254252, 0.22255996), (0.15247297, 0.025663737, 0.32166898), (0.21395856, 0.02995383, 0.37961143), (0.30924052, 0.029791668, 0.446247), (0.39860985, 0.011786121, 0.54164606), (0.025382405, -0.017578995, 0.017529314), (0.07196504, -0.009801229, 0.22482675), (0.14945245, -0.011173483, 0.3254069), (0.21162197, -0.011531318, 0.38369185), (0.30701706, -0.014896906, 0.44412902), (0.39851475, -0.003239749, 0.54039514), (0.07056184, 0.048159577, 0.22321144), (0.14948305, 0.06219578, 0.32318848), (0.20255597, 0.069860265, 0.38755924), (0.3073925, 0.074376434, 0.45052052), (0.399481, 0.02662483, 0.54237187), (0.024001453, 0.004839287, 0.017529314), (0.021913357, 0.035553735, 0.0900922), (0.03278589, 0.051487092, 0.14443478), (0.03643149, -0.023723967, 0.14485824), (0.025363687, -0.02166294, 0.0901258), (0.03544846, 0.013918705, 0.14425805), (0.023603477, 0.0069442024, 0.090125315), (0.024483582, -0.007359388, 0.09012545), (0.035844088, -0.004930344, 0.14461204), (0.022756914, 0.021274537, 0.09010883), (0.03415285, 0.032751452, 0.14432956), (-0.010884625, 0.02209802, 0.017444927), (0.03399709, 0.02209802, 0.017444931), (-0.06765859, 0.06858931, 0.22603321), (0.048226655, 0.06528346, 0.22832611), (-0.0776511, 0.13974766, 0.33906984), (0.06822046, 0.13061485, 0.3450594), (-0.082821146, 0.18555222, 0.4276644), (0.079626575, 0.19929291, 0.42028856), (-0.08503722, 0.31368852, 0.51018345), (0.09112467, 0.30823642, 0.49572617), (-0.008796513, 0.42920312, 0.607182), (0.049884945, 0.4241293, 0.60385287), (0.011556235, 0.02209802, 0.017444927), (-0.009539977, 0.06971562, 0.22475712), (-0.003917828, 0.14082204, 0.33886343), (-0.0012904108, 0.2067374, 0.41662985), (0.0040704906, 0.31848755, 0.50773203), (0.020091593, 0.42561603, 0.6075477), (0.022776663, 0.022098018, 0.017444927), (0.019386426, 0.0670729, 0.2269178), (0.032316193, 0.13603096, 0.3421033), (0.03940843, 0.20270014, 0.41980195), (0.047913343, 0.31361422, 0.50362396), (0.034799367, 0.42450073, 0.6063068), (-0.038599797, 0.069217354, 0.22536339), (-0.040617704, 0.1400064, 0.33958805), (-0.041885152, 0.19726135, 0.4223153), (-0.040357947, 0.3180095, 0.5099598), (0.0055835843, 0.42724574, 0.6077845), (0.00031588692, 0.022098018, 0.017444927), (-0.030468846, 0.021902291, 0.0900078), (-0.045703586, 0.033733886, 0.14435038), (0.029589325, 0.032748394, 0.14477383), (0.026851729, 0.021828253, 0.090041414), (-0.0080425665, 0.034081616, 0.14417368), (-0.0018095151, 0.021830209, 0.09004092), (0.012521125, 0.021829236, 0.090041064), (0.010795154, 0.03331759, 0.14452763), (-0.016164798, 0.02186632, 0.09002443), (-0.026919346, 0.03394634, 0.14424518), (-0.025159111, 0.001838651, 0.024598038), (0.0026579378, -0.02518031, 0.02296688), (-0.0022924915, 0.051033564, 0.09312559), (0.037113603, 0.014707505, 0.08750839), (0.033930242, 0.10182828, 0.19857678), (0.11009845, 0.045388356, 0.15905643), (0.0980466, 0.17523973, 0.24194115), (0.19060612, 0.12027469, 0.18262863), (0.13957016, 0.21756105, 0.2751928), (0.23394342, 0.1791024, 0.19866581), (0.2038564, 0.32440954, 0.28975928), (0.2851528, 0.2806441, 0.1863724), (0.31468832, 0.37550184, 0.28512722), (0.3460623, 0.3568462, 0.24997315), (-0.011270033, -0.011676393, 0.023819327), (0.017360512, 0.032796513, 0.090458326), (0.072070196, 0.079597615, 0.16407241), (0.1419694, 0.14649993, 0.21733539), (0.1843161, 0.20325874, 0.2358394), (0.24128713, 0.29953662, 0.24109854), (0.32999644, 0.36677945, 0.26718417), (0.0075340047, 0.041915033, 0.09179196), (0.0529511, 0.09000899, 0.18305391), (0.120013095, 0.16086033, 0.22964789), (0.16183731, 0.2105777, 0.25541866), (0.22221342, 0.32106894, 0.25707948), (0.32225853, 0.37127486, 0.27607444), (-0.018214572, -0.004918872, 0.024208684), (-0.0043479577, -0.01838772, 0.023395669), (0.027177613, 0.023806434, 0.08899222), (0.09095297, 0.06351866, 0.15957294), (0.16494992, 0.13129877, 0.2039294), (0.20828784, 0.19236454, 0.21668251), (0.263255, 0.28305355, 0.21911311), (0.3378662, 0.36202675, 0.25851858), (-0.011532427, -0.0035984244, 0.015360396), (0.010824483, 0.015769819, 0.0031824172), (-0.06953077, 0.046129294, 0.18234977), (-0.009820417, 0.09779853, 0.14736876), (-0.12641163, 0.09473271, 0.23900183), (-0.046231605, 0.1601366, 0.19795021), (-0.15950273, 0.12762302, 0.27052644), (-0.0789451, 0.2063276, 0.21209727), (-0.2255087, 0.1928212, 0.26034355), (-0.12460779, 0.26979536, 0.20614788), (-0.2291336, 0.30612203, 0.2488114), (-0.19388403, 0.33102164, 0.2326952), (-0.0003399714, 0.006085132, 0.009321896), (-0.041142434, 0.07189168, 0.16398081), (-0.089627, 0.12701796, 0.21695065), (-0.12705478, 0.1668623, 0.23450772), (-0.17823724, 0.23070073, 0.23410095), (-0.21119907, 0.3177552, 0.24220169), (0.0052453903, 0.01092808, 0.006261183), (-0.025351822, 0.084641024, 0.15627211), (-0.068227924, 0.1433522, 0.2078249), (-0.10280808, 0.18617307, 0.22462541), (-0.15129787, 0.24977458, 0.22149193), (-0.20245387, 0.3241241, 0.23790894), (-0.05543284, 0.058863766, 0.17351833), (-0.10807829, 0.11045971, 0.22901636), (-0.14403032, 0.14682688, 0.2529103), (-0.20296161, 0.21148874, 0.24712718), (-0.22011566, 0.31177732, 0.24578671), (-0.00594182, 0.0012340419, 0.012363752), (-0.021299465, 0.009091686, 0.07693903), (-0.036003523, 0.021758338, 0.12160031), (0.002025593, 0.054919194, 0.09885003), (0.0072928295, 0.034256235, 0.060036726), (-0.017381381, 0.038432665, 0.110267796), (-0.006979091, 0.02160779, 0.06870772), (0.00016098656, 0.027919784, 0.06442445), (-0.0076294206, 0.046610754, 0.1047329), (-0.014149573, 0.015324453, 0.07288351), (-0.026733749, 0.030045656, 0.11605632), (-0.01159632, 0.022321735, 0.024847016), (-0.023204222, -0.014668278, 0.023267455), (0.041054226, 0.025095448, 0.09579071), (0.026130047, -0.02628556, 0.090585575), (0.099471524, 0.017744131, 0.20624825), (0.08286406, -0.075338766, 0.16760626), (0.18832818, -0.0070691872, 0.2573157), (0.17529325, -0.11984148, 0.20424698), (0.23326515, -0.029036867, 0.30470055), (0.22843435, -0.14424586, 0.24116689), (0.34116903, -0.04860874, 0.33312747), (0.32169124, -0.16223519, 0.24497114), (0.42952344, -0.14011297, 0.3228535), (0.42304793, -0.18271078, 0.2907337), (-0.017423911, 0.0038479026, 0.024109345), (0.033443794, -0.00054562395, 0.09342133), (0.096399605, -0.026050346, 0.17239927), (0.17806919, -0.061588768, 0.23821919), (0.23015031, -0.08231335, 0.27779502), (0.3206477, -0.10342454, 0.30251786), (0.42569038, -0.16112812, 0.3074432), (0.03722193, 0.012292211, 0.09464769), (0.09719749, -0.0043707183, 0.19118787), (0.18300559, -0.034137107, 0.24812958), (0.23130523, -0.055207, 0.29205763), (0.33749136, -0.071558684, 0.31124264), (0.42746037, -0.15052892, 0.31533644), (-0.014511377, 0.013085624, 0.02448012), (-0.020301407, -0.005351449, 0.02369822), (0.02979543, -0.013329517, 0.09203276), (0.09043568, -0.050078135, 0.16809282), (0.17374197, -0.09041913, 0.22585808), (0.22853872, -0.11245854, 0.2608048), (0.3129151, -0.13637778, 0.28210372), (0.42422026, -0.17179301, 0.2992916), (0.0023394653, -0.015847497, 0.0057047806), (-0.008554066, 0.01203805, -0.0040609553), (-0.073699325, -0.045035914, 0.13981874), (-0.099712715, 0.028579129, 0.11846368), (-0.1410209, -0.064412065, 0.19641626), (-0.16990495, 0.031261876, 0.17403136), (-0.18349615, -0.07179828, 0.23829807), (-0.22258227, 0.027051635, 0.19910827), (-0.26549724, -0.09837479, 0.25170696), (-0.29542002, 0.014434401, 0.21082225), (-0.36824262, -0.06609442, 0.26255006), (-0.37752885, -0.027782261, 0.24936561), (-0.0031073007, -0.001904724, 0.0008219143), (-0.08738607, -0.009226216, 0.12707475), (-0.15657009, -0.01832886, 0.18154036), (-0.20579368, -0.027301207, 0.20982286), (-0.28098428, -0.04228154, 0.23090176), (-0.37204346, -0.046503343, 0.25739577), (-0.005830683, 0.0050666626, -0.0016195204), (-0.093368664, 0.009864942, 0.12314652), (-0.16317672, 0.006445026, 0.1777488), (-0.21368748, 0.00033200532, 0.20536608), (-0.28758046, -0.013367186, 0.22194366), (-0.37451538, -0.037036695, 0.2538378), (-0.08050877, -0.02716552, 0.13345936), (-0.14852501, -0.0411909, 0.18940917), (-0.19470288, -0.049818486, 0.22364755), (-0.27352083, -0.0706221, 0.24083085), (-0.36998472, -0.056202546, 0.260247), (-0.00037908414, -0.008888487, 0.0032676808), (-0.015760269, -0.021190545, 0.054946437), (-0.035770565, -0.029071115, 0.08980574), (-0.053471893, 0.018114028, 0.07422657), (-0.02964095, 0.014449635, 0.042514663), (-0.04495319, -0.005737889, 0.08163424), (-0.022685263, -0.003358569, 0.048749175), (-0.026163086, 0.0055455333, 0.04563194), (-0.049170155, 0.006242581, 0.07799944), (-0.019216599, -0.012290479, 0.05185327), (-0.040358216, -0.017440315, 0.08572908), (0.02021537, -0.0023757685, 0.0057047782), (-0.009318223, -0.0074079526, -0.0040609553), (0.039953202, -0.08635648, 0.13426535), (-0.03755414, -0.09793388, 0.11141308), (0.048892945, -0.16024016, 0.18896589), (-0.053924046, -0.16974804, 0.16777277), (0.047124848, -0.20345634, 0.23458645), (-0.064739004, -0.22096033, 0.20118314), (0.057023637, -0.2884064, 0.25209367), (-0.06937471, -0.29308957, 0.21952057), (0.006617725, -0.38254556, 0.2616684), (-0.035335034, -0.38353544, 0.25017065), (0.005450911, -0.0048918608, 0.0008219115), (0.0023748428, -0.09327481, 0.12037669), (-0.0015726164, -0.16633874, 0.1758098), (-0.006282896, -0.21525268, 0.21203385), (-0.008458391, -0.29028368, 0.23964548), (-0.014805362, -0.38204363, 0.2577359), (-0.00193335, -0.0061499067, -0.0016195211), (-0.017652676, -0.095470615, 0.11615721), (-0.02791585, -0.1679481, 0.1720883), (-0.036411405, -0.21733747, 0.20834015), (-0.040362343, -0.2905456, 0.23219755), (-0.02517666, -0.38247746, 0.25451997), (0.021283876, -0.08986375, 0.12722701), (0.023450516, -0.16302867, 0.18298751), (0.020510904, -0.20942809, 0.22326882), (0.024335451, -0.28960368, 0.24589157), (-0.0041947067, -0.38210332, 0.26005733), (0.012847085, -0.0036315816, 0.003267679), (0.022642914, -0.021181885, 0.05494644), (0.027655313, -0.042729937, 0.08897643), (-0.022272784, -0.050675794, 0.07310021), (-0.015162362, -0.027571985, 0.042513333), (0.002955757, -0.047119614, 0.08058615), (0.0037543736, -0.02435954, 0.048748896), (-0.005700065, -0.025965735, 0.04563105), (-0.009686995, -0.0488546, 0.07689598), (0.013219707, -0.022767903, 0.051853273), (0.015356876, -0.044938937, 0.08477134), (0.004743333, -0.023532907, 0.02801266), (-0.034415502, -0.0015823145, 0.028034015), (0.028734006, -0.08540323, 0.24014333), (-0.069419675, -0.023872182, 0.24563411), (-0.0010355711, -0.16447328, 0.332525), (-0.12114042, -0.08053188, 0.34199437), (-0.013654128, -0.2145562, 0.39486426), (-0.15948167, -0.1422789, 0.38503075), (-0.057291552, -0.33338022, 0.44080096), (-0.20990948, -0.23663153, 0.42283577), (-0.16546226, -0.38839346, 0.52141607), (-0.21610026, -0.353712, 0.51652676), (-0.014835196, -0.012534353, 0.028046578), (-0.022143535, -0.056796923, 0.24037209), (-0.06510492, -0.12791634, 0.33034712), (-0.09366809, -0.19287567, 0.37353253), (-0.13613398, -0.29266602, 0.42429432), (-0.18943869, -0.37049586, 0.51947504), (-0.024625061, -0.0070508495, 0.02804778), (-0.045680076, -0.039885584, 0.24337126), (-0.093528196, -0.10445213, 0.33565062), (-0.12652427, -0.1672259, 0.37909257), (-0.17293286, -0.26492482, 0.4225877), (-0.20231438, -0.3619065, 0.5181968), (0.0031844229, -0.071136534, 0.2401698), (-0.033227697, -0.1461672, 0.33113277), (-0.05444552, -0.20507854, 0.3824361), (-0.09735668, -0.3152127, 0.43059403), (-0.17720509, -0.37937307, 0.52050596), (-0.0050283484, -0.018038005, 0.028034974), (0.022039786, -0.029962335, 0.103542194), (0.029326364, -0.044971578, 0.16034251), (-0.03566978, -0.0066438, 0.16161677), (-0.027927909, -0.0016612918, 0.10380526), (-0.0036197305, -0.026341086, 0.16075495), (-0.0029229075, -0.015698329, 0.10377334), (-0.01542468, -0.008660358, 0.10380863), (-0.019621715, -0.016350195, 0.16127968), (0.009581622, -0.022820102, 0.103680626), (0.012866616, -0.035660475, 0.1605748), (0.027739868, -0.0072939107, 0.05342163), (0.011986506, 0.019073756, 0.045807447), (0.046481296, -0.009315761, 0.22564776), (0.00880409, 0.061099727, 0.2079286), (0.01721692, -0.03767137, 0.340405), (-0.026291698, 0.053628944, 0.3193647), (0.0026765913, -0.052971978, 0.41743883), (-0.06098406, 0.037041474, 0.3916118), (-0.05544199, -0.09020606, 0.50926083), (-0.11383489, 0.014787091, 0.46998104), (-0.12697417, -0.054743543, 0.59090835), (-0.14485684, -0.01767032, 0.5768007), (0.019851832, 0.0058672144, 0.04961454), (0.025552347, 0.023789082, 0.21671042), (-0.009159744, 0.0023285858, 0.33068115), (-0.03893599, -0.019324128, 0.40474772), (-0.08828105, -0.04439161, 0.4945678), (-0.13465822, -0.036273483, 0.5850247), (0.015916634, 0.012465413, 0.047710992), (0.017423436, 0.04249675, 0.2126303), (-0.018124133, 0.02720145, 0.32545877), (-0.049733028, 0.008245289, 0.39918888), (-0.10086951, -0.015756551, 0.48370087), (-0.13934495, -0.026992187, 0.58125126), (0.035953306, 0.007010772, 0.22138754), (0.004053682, -0.01824715, 0.33623105), (-0.018928722, -0.037610635, 0.4117583), (-0.07292135, -0.06907137, 0.50297165), (-0.13059098, -0.045542914, 0.58821905), (0.023800252, -0.00073022797, 0.051521465), (0.042468913, -0.002356139, 0.103734486), (0.047981538, -0.0020407967, 0.14836344), (0.022285648, 0.042685427, 0.13580391), (0.022408493, 0.03137865, 0.09400193), (0.034625243, 0.019917903, 0.1422928), (0.032454737, 0.014481429, 0.09892264), (0.027428027, 0.022919085, 0.096468896), (0.028511591, 0.031332824, 0.13909706), (0.037470132, 0.006038193, 0.101347215), (0.041303344, 0.008880104, 0.14539188)]
                    texCoord2f[] primvars:st = [(0.1821733, 0.1023441), (0.1821733, 0.1023441), (0.1821733, 0.1023441), (0.1821733, 0.1023441), (0.1821733, 0.1023441), (0.1821733, 0.1023441), (0.1821733, 0.1023441), (0.1821733, 0.1023441), (0.1821733, 0.1023441), (0.17107856, 0.10480486), (0.17107856, 0.10480486), (0.17107856, 0.10480486), (0.17107856, 0.10480486), (0.17107856, 0.10480486), (0.17107856, 0.10480486), (0.17107856, 0.10480486), (0.1710118, 0.10481967), (0.1710118, 0.10481967), (0.13594875, 0.10665047), (0.13594875, 0.10665047), (0.13594875, 0.10665047), (0.13594875, 0.10665047), (0.13594875, 0.10665047), (0.13594875, 0.10665047), (0.13594875, 0.10665047), (0.13594875, 0.10665047), (0.13594875, 0.10665047), (0.14794494, 0.10695749), (0.14794494, 0.10695749), (0.14794494, 0.10695749), (0.14794494, 0.10695749), (0.14794494, 0.10695749), (0.14794494, 0.10695749), (0.14794494, 0.10695749), (0.14796627, 0.10695803), (0.14796627, 0.10695803), (0.15998381, 0.10726561), (0.15998381, 0.10726561), (0.15998381, 0.10726561), (0.15998381, 0.10726561), (0.15998381, 0.10726561), (0.15998381, 0.10726561), (0.15998381, 0.10726561), (0.15998381, 0.10726561), (0.15998381, 0.10726561), (0.17870902, 0.17681761), (0.17870902, 0.17681761), (0.17870902, 0.17681761), (0.17870902, 0.17681761), (0.17870902, 0.17681761), (0.17870902, 0.17681761), (0.17870902, 0.17681761), (0.1639266, 0.17751092), (0.1639266, 0.17751092), (0.1639266, 0.17751092), (0.1639266, 0.17751092), (0.1639266, 0.17751092), (0.1639266, 0.17751092), (0.1639266, 0.17751092), (0.11817716, 0.17802414), (0.11817716, 0.17802414), (0.11817716, 0.17802414), (0.11817716, 0.17802414), (0.11817716, 0.17802414), (0.11817716, 0.17802414), (0.11817716, 0.17802414), (0.13363297, 0.17811422), (0.13363297, 0.17811422), (0.13363297, 0.17811422), (0.13363297, 0.17811422), (0.13363297, 0.17811422), (0.13363297, 0.17811422), (0.13363297, 0.17811422), (0.14914414, 0.17820437), (0.14914414, 0.17820437), (0.14914414, 0.17820437), (0.14914414, 0.17820437), (0.14914414, 0.17820437), (0.14914414, 0.17820437), (0.14914414, 0.17820437), (0.18473254, 0.19618599), (0.18473254, 0.19618599), (0.111204095, 0.2060291), (0.111204095, 0.2060291), (0.12804827, 0.20602912), (0.12804827, 0.20602912), (0.14489244, 0.20602912), (0.14489244, 0.20602912), (0.16102365, 0.20602912), (0.16102365, 0.20602912), (0.19051453, 0.23199596), (0.19051453, 0.23199596), (0.19051453, 0.23199596), (0.19051453, 0.23199596), (0.19051453, 0.23199596), (0.19051453, 0.23199596), (0.19051453, 0.23199596), (0.10317342, 0.2346906), (0.10317342, 0.2346906), (0.10317342, 0.2346906), (0.10317342, 0.2346906), (0.10317342, 0.2346906), (0.10317342, 0.2346906), (0.10317342, 0.2346906), (0.12346625, 0.2351011), (0.12346625, 0.2351011), (0.12346625, 0.2351011), (0.12346625, 0.2351011), (0.12346625, 0.2351011), (0.12346625, 0.2351011), (0.12346625, 0.2351011), (0.16351815, 0.23525932), (0.16351815, 0.23525932), (0.16351815, 0.23525932), (0.16351815, 0.23525932), (0.16351815, 0.23525932), (0.16351815, 0.23525932), (0.16351815, 0.23525932), (0.16351816, 0.23525932), (0.16351816, 0.23525932), (0.16351816, 0.23525932), (0.16351816, 0.23525932), (0.16351816, 0.23525932), (0.16351816, 0.23525932), (0.16351816, 0.23525932), (0.14385869, 0.23549064), (0.14385869, 0.23549064), (0.14385869, 0.23549064), (0.14385869, 0.23549064), (0.14385869, 0.23549064), (0.14385869, 0.23549064), (0.14385869, 0.23549064), (0.14385869, 0.23549065), (0.14385869, 0.23549065), (0.14385869, 0.23549065), (0.14385869, 0.23549065), (0.14385869, 0.23549065), (0.14385869, 0.23549065), (0.14385869, 0.23549065), (0.07844696, 0.32293934), (0.07844696, 0.32293934), (0.07844696, 0.32293934), (0.07844696, 0.32293934), (0.07844696, 0.32293934), (0.07844696, 0.32293934), (0.07844696, 0.32293934), (0.07844696, 0.32293934), (0.07844696, 0.32293934), (0.2054216, 0.32293934), (0.2054216, 0.32293934), (0.2054216, 0.32293934), (0.2054216, 0.32293934), (0.2054216, 0.32293934), (0.2054216, 0.32293934), (0.2054216, 0.32293934), (0.2054216, 0.32293934), (0.2054216, 0.32293934), (0.1095202, 0.3241675), (0.1095202, 0.3241675), (0.1095202, 0.3241675), (0.1095202, 0.3241675), (0.1095202, 0.3241675), (0.1095202, 0.3241675), (0.1095202, 0.3241675), (0.10957545, 0.32416964), (0.10957545, 0.32416964), (0.14070395, 0.3254), (0.14070395, 0.3254), (0.14070395, 0.3254), (0.14070395, 0.3254), (0.14070395, 0.3254), (0.14070395, 0.3254), (0.14070395, 0.3254), (0.14070395, 0.3254), (0.14070395, 0.3254), (0.17090957, 0.3254), (0.17090957, 0.3254), (0.17090957, 0.3254), (0.17090957, 0.3254), (0.17090957, 0.3254), (0.17090957, 0.3254), (0.17090957, 0.3254), (0.1707278, 0.32540005), (0.1707278, 0.32540005), (0.21856463, 0.4541952), (0.21856463, 0.4541952), (0.21856463, 0.4541952), (0.21856463, 0.4541952), (0.21856463, 0.4541952), (0.21856463, 0.4541952), (0.21856463, 0.4541952), (0.21856463, 0.4541952), (0.21856463, 0.4541952), (0.17884883, 0.45471877), (0.17884883, 0.45471877), (0.17884883, 0.45471877), (0.17884883, 0.45471877), (0.17884883, 0.45471877), (0.17884883, 0.45471877), (0.17884883, 0.45471877), (0.17860982, 0.45472193), (0.17860982, 0.45472193), (0.13913304, 0.45524237), (0.13913304, 0.45524237), (0.13913304, 0.45524237), (0.13913304, 0.45524237), (0.13913304, 0.45524237), (0.13913304, 0.45524237), (0.13913304, 0.45524237), (0.13913304, 0.45524237), (0.13913304, 0.45524237), (0.10095542, 0.45576587), (0.10095542, 0.45576587), (0.100887656, 0.4557668), (0.100887656, 0.4557668), (0.100887656, 0.4557668), (0.100887656, 0.4557668), (0.100887656, 0.4557668), (0.100887656, 0.4557668), (0.100887656, 0.4557668), (0.06277781, 0.45628947), (0.06277781, 0.45628947), (0.06277781, 0.45628947), (0.06277781, 0.45628947), (0.06277781, 0.45628947), (0.06277781, 0.45628947), (0.06277781, 0.45628947), (0.06277781, 0.45628947), (0.06277781, 0.45628947), (0.22596632, 0.538828), (0.22596632, 0.538828), (0.22596632, 0.538828), (0.22596632, 0.538828), (0.22596632, 0.538828), (0.22596632, 0.538828), (0.22596632, 0.538828), (0.22596632, 0.538828), (0.22596632, 0.538828), (0.048792303, 0.53944325), (0.048792303, 0.53944325), (0.048792303, 0.53944325), (0.048792303, 0.53944325), (0.048792303, 0.53944325), (0.048792303, 0.53944325), (0.048792303, 0.53944325), (0.048792303, 0.53944325), (0.048792303, 0.53944325), (0.09362123, 0.5397502), (0.09362123, 0.5397502), (0.09362123, 0.5397502), (0.09362123, 0.5397502), (0.09362123, 0.5397502), (0.09362123, 0.5397502), (0.09362123, 0.5397502), (0.09370096, 0.5397508), (0.09370096, 0.5397508), (0.1814136, 0.5400584), (0.1814136, 0.5400584), (0.1386096, 0.54005843), (0.1386096, 0.54005843), (0.1386096, 0.54005843), (0.1386096, 0.54005843), (0.1386096, 0.54005843), (0.1386096, 0.54005843), (0.1386096, 0.54005843), (0.1386096, 0.54005843), (0.1386096, 0.54005843), (0.18167275, 0.54005843), (0.18167275, 0.54005843), (0.18167275, 0.54005843), (0.18167275, 0.54005843), (0.18167275, 0.54005843), (0.18167275, 0.54005843), (0.18167275, 0.54005843), (0.24078274, 0.6441548), (0.24078274, 0.6441548), (0.24078274, 0.6441548), (0.24078274, 0.6441548), (0.24078274, 0.6441548), (0.24078274, 0.6441548), (0.24078274, 0.6441548), (0.24078274, 0.6441548), (0.24078274, 0.6441548), (0.19129951, 0.6497438), (0.19129951, 0.6497438), (0.19129951, 0.6497438), (0.19129951, 0.6497438), (0.19129951, 0.6497438), (0.19129951, 0.6497438), (0.19129951, 0.6497438), (0.19102022, 0.6497737), (0.19102022, 0.6497737), (0.14489225, 0.6547175), (0.14489225, 0.6547175), (0.14489225, 0.6547175), (0.14489225, 0.6547175), (0.14489225, 0.6547175), (0.14489225, 0.6547175), (0.14489225, 0.6547175), (0.14489225, 0.6547175), (0.14489225, 0.6547175), (0.10186866, 0.66030645), (0.10186866, 0.66030645), (0.10179228, 0.66031635), (0.10179228, 0.66031635), (0.10179228, 0.66031635), (0.10179228, 0.66031635), (0.10179228, 0.66031635), (0.10179228, 0.66031635), (0.10179228, 0.66031635), (0.05884508, 0.66589546), (0.05884508, 0.66589546), (0.05884508, 0.66589546), (0.05884508, 0.66589546), (0.05884508, 0.66589546), (0.05884508, 0.66589546), (0.05884508, 0.66589546), (0.05884508, 0.66589546), (0.05884508, 0.66589546), (0.21657456, 0.7788296), (0.21657456, 0.7788296), (0.21657456, 0.7788296), (0.21657456, 0.7788296), (0.21657456, 0.7788296), (0.21657456, 0.7788296), (0.21657456, 0.7788296), (0.21657456, 0.7788296), (0.21657456, 0.7788296), (0.18840986, 0.7857586), (0.18840986, 0.7857586), (0.18840986, 0.7857586), (0.18840986, 0.7857586), (0.18840986, 0.7857586), (0.18840986, 0.7857586), (0.18840986, 0.7857586), (0.18830702, 0.7857892), (0.18830702, 0.7857892), (0.17131868, 0.7908421), (0.17131868, 0.7908421), (0.17131868, 0.7908421), (0.17131868, 0.7908421), (0.17131868, 0.7908421), (0.17131868, 0.7908421), (0.17131868, 0.7908421), (0.17131868, 0.7908421), (0.17131868, 0.7908421), (0.15392008, 0.79223454), (0.15392008, 0.79223454), (0.1538892, 0.792237), (0.1538892, 0.792237), (0.1538892, 0.792237), (0.1538892, 0.792237), (0.1538892, 0.792237), (0.1538892, 0.792237), (0.1538892, 0.792237), (0.13652147, 0.7936269), (0.13652147, 0.7936269), (0.13652147, 0.7936269), (0.13652147, 0.7936269), (0.13652147, 0.7936269), (0.13652147, 0.7936269), (0.13652147, 0.7936269), (0.13652147, 0.7936269), (0.13652147, 0.7936269)] (
                        interpolation = "faceVarying"
                    )
                    int[] primvars:st:indices = [90, 175, 118, 36, 52, 73, 148, 193, 175, 184, 267, 193, 229, 283, 267, 283, 319, 328, 292, 348, 303, 258, 303, 247, 213, 258, 247, 157, 202, 213, 111, 166, 132, 292, 328, 337, 258, 283, 292, 202, 267, 258, 175, 202, 166, 104, 166, 157, 27, 73, 66, 97, 157, 139, 9, 45, 52, 139, 213, 220, 220, 247, 238, 247, 310, 238, 303, 355, 310, 104, 59, 66, 111, 73, 52, 118, 45, 90, 125, 66, 73, 18, 66, 59, 91, 176, 119, 37, 53, 74, 149, 194, 176, 185, 268, 194, 268, 275, 284, 284, 320, 329, 293, 349, 304, 259, 304, 248, 203, 248, 214, 167, 214, 158, 112, 167, 133, 293, 329, 338, 259, 284, 293, 194, 259, 203, 176, 203, 167, 105, 167, 158, 28, 74, 67, 98, 158, 140, 10, 46, 53, 140, 214, 221, 221, 248, 239, 248, 311, 239, 304, 356, 311, 105, 60, 67, 112, 74, 53, 119, 46, 91, 126, 67, 74, 19, 67, 60, 16, 80, 88, 80, 182, 88, 150, 200, 182, 186, 256, 200, 231, 290, 256, 290, 321, 335, 294, 346, 301, 254, 294, 301, 204, 254, 211, 164, 204, 211, 84, 168, 164, 34, 86, 84, 20, 84, 82, 82, 164, 141, 141, 211, 222, 222, 254, 240, 254, 312, 240, 301, 357, 312, 294, 335, 339, 260, 290, 294, 204, 256, 260, 182, 204, 168, 88, 168, 86, 38, 88, 86, 120, 151, 177, 39, 54, 75, 177, 187, 195, 195, 232, 269, 232, 285, 269, 285, 322, 330, 295, 350, 305, 261, 305, 249, 215, 261, 249, 159, 205, 215, 134, 177, 169, 285, 340, 295, 261, 285, 295, 205, 269, 261, 169, 195, 205, 106, 169, 159, 29, 75, 68, 99, 159, 142, 11, 47, 54, 142, 215, 223, 223, 249, 241, 249, 313, 241, 305, 358, 313, 106, 61, 68, 113, 75, 54, 92, 54, 47, 127, 68, 75, 21, 68, 61, 17, 81, 89, 81, 183, 89, 152, 201, 183, 188, 257, 201, 233, 291, 257, 278, 336, 291, 296, 347, 302, 255, 296, 302, 212, 262, 255, 165, 206, 212, 85, 170, 165, 35, 87, 85, 22, 85, 83, 83, 165, 143, 143, 212, 224, 224, 255, 242, 242, 302, 314, 302, 359, 314, 291, 341, 296, 262, 291, 296, 206, 257, 262, 183, 206, 170, 89, 170, 87, 40, 89, 87, 93, 178, 121, 41, 55, 76, 153, 196, 178, 189, 270, 196, 234, 286, 270, 286, 324, 331, 297, 351, 306, 263, 306, 250, 216, 263, 250, 160, 207, 216, 114, 171, 135, 297, 331, 342, 270, 297, 263, 196, 263, 207, 178, 207, 171, 107, 171, 160, 30, 76, 69, 100, 160, 144, 12, 48, 55, 144, 216, 225, 225, 250, 243, 243, 306, 315, 306, 360, 315, 107, 62, 69, 114, 76, 55, 121, 48, 93, 128, 69, 76, 23, 69, 62, 94, 179, 122, 42, 56, 77, 154, 197, 179, 190, 271, 197, 235, 287, 271, 287, 325, 332, 298, 352, 307, 264, 307, 251, 217, 264, 251, 161, 208, 217, 115, 172, 136, 298, 332, 343, 271, 298, 264, 197, 264, 208, 179, 208, 172, 108, 172, 161, 31, 77, 70, 101, 161, 145, 13, 49, 56, 145, 217, 226, 226, 251, 244, 244, 307, 316, 307, 361, 316, 108, 63, 70, 115, 77, 56, 94, 56, 49, 129, 70, 77, 24, 70, 63, 95, 180, 123, 43, 57, 78, 155, 198, 180, 198, 236, 272, 272, 281, 288, 288, 326, 333, 299, 353, 308, 252, 299, 308, 218, 265, 252, 162, 209, 218, 116, 173, 137, 299, 333, 344, 265, 288, 299, 209, 272, 265, 180, 209, 173, 109, 173, 162, 32, 78, 71, 102, 162, 146, 14, 50, 57, 146, 218, 227, 227, 252, 245, 245, 308, 317, 308, 362, 317, 109, 64, 71, 116, 78, 57, 123, 50, 95, 130, 71, 78, 25, 71, 64, 96, 181, 124, 44, 58, 79, 181, 192, 199, 199, 237, 273, 273, 282, 289, 289, 327, 334, 300, 354, 309, 253, 300, 309, 219, 266, 253, 163, 210, 219, 138, 181, 174, 300, 334, 345, 266, 289, 300, 210, 273, 266, 174, 199, 210, 110, 174, 163, 33, 79, 72, 103, 163, 147, 15, 51, 58, 147, 219, 228, 228, 253, 246, 246, 309, 318, 309, 363, 318, 110, 65, 72, 117, 79, 58, 96, 58, 51, 131, 72, 79, 26, 72, 65, 90, 148, 175, 36, 9, 52, 148, 184, 193, 184, 229, 267, 229, 274, 283, 283, 274, 319, 292, 337, 348, 258, 292, 303, 213, 202, 258, 157, 166, 202, 111, 175, 166, 292, 283, 328, 258, 267, 283, 202, 193, 267, 175, 193, 202, 104, 125, 166, 27, 36, 73, 97, 104, 157, 9, 0, 45, 139, 157, 213, 220, 213, 247, 247, 303, 310, 303, 348, 355, 104, 97, 59, 111, 132, 73, 118, 52, 45, 125, 104, 66, 18, 27, 66, 91, 149, 176, 37, 10, 53, 149, 185, 194, 185, 230, 268, 268, 230, 275, 284, 275, 320, 293, 338, 349, 259, 293, 304, 203, 259, 248, 167, 203, 214, 112, 176, 167, 293, 284, 329, 259, 268, 284, 194, 268, 259, 176, 194, 203, 105, 126, 167, 28, 37, 74, 98, 105, 158, 10, 1, 46, 140, 158, 214, 221, 214, 248, 248, 304, 311, 304, 349, 356, 105, 98, 60, 112, 133, 74, 119, 53, 46, 126, 105, 67, 19, 28, 67, 16, 2, 80, 80, 150, 182, 150, 186, 200, 186, 231, 256, 231, 276, 290, 290, 276, 321, 294, 339, 346, 254, 260, 294, 204, 260, 254, 164, 168, 204, 84, 86, 168, 34, 38, 86, 20, 34, 84, 82, 84, 164, 141, 164, 211, 222, 211, 254, 254, 301, 312, 301, 346, 357, 294, 290, 335, 260, 256, 290, 204, 200, 256, 182, 200, 204, 88, 182, 168, 38, 16, 88, 120, 92, 151, 39, 11, 54, 177, 151, 187, 195, 187, 232, 232, 277, 285, 285, 277, 322, 295, 340, 350, 261, 295, 305, 215, 205, 261, 159, 169, 205, 134, 113, 177, 285, 330, 340, 261, 269, 285, 205, 195, 269, 169, 177, 195, 106, 127, 169, 29, 39, 75, 99, 106, 159, 11, 3, 47, 142, 159, 215, 223, 215, 249, 249, 305, 313, 305, 350, 358, 106, 99, 61, 113, 134, 75, 92, 120, 54, 127, 106, 68, 21, 29, 68, 17, 4, 81, 81, 152, 183, 152, 188, 201, 188, 233, 257, 233, 278, 291, 278, 323, 336, 296, 341, 347, 255, 262, 296, 212, 206, 262, 165, 170, 206, 85, 87, 170, 35, 40, 87, 22, 35, 85, 83, 85, 165, 143, 165, 212, 224, 212, 255, 242, 255, 302, 302, 347, 359, 291, 336, 341, 262, 257, 291, 206, 201, 257, 183, 201, 206, 89, 183, 170, 40, 17, 89, 93, 153, 178, 41, 12, 55, 153, 189, 196, 189, 234, 270, 234, 279, 286, 286, 279, 324, 297, 342, 351, 263, 297, 306, 216, 207, 263, 160, 171, 207, 114, 178, 171, 297, 286, 331, 270, 286, 297, 196, 270, 263, 178, 196, 207, 107, 128, 171, 30, 41, 76, 100, 107, 160, 12, 5, 48, 144, 160, 216, 225, 216, 250, 243, 250, 306, 306, 351, 360, 107, 100, 62, 114, 135, 76, 121, 55, 48, 128, 107, 69, 23, 30, 69, 94, 154, 179, 42, 13, 56, 154, 190, 197, 190, 235, 271, 235, 280, 287, 287, 280, 325, 298, 343, 352, 264, 298, 307, 217, 208, 264, 161, 172, 208, 115, 179, 172, 298, 287, 332, 271, 287, 298, 197, 271, 264, 179, 197, 208, 108, 129, 172, 31, 42, 77, 101, 108, 161, 13, 6, 49, 145, 161, 217, 226, 217, 251, 244, 251, 307, 307, 352, 361, 108, 101, 63, 115, 136, 77, 94, 122, 56, 129, 108, 70, 24, 31, 70, 95, 155, 180, 43, 14, 57, 155, 191, 198, 198, 191, 236, 272, 236, 281, 288, 281, 326, 299, 344, 353, 252, 265, 299, 218, 209, 265, 162, 173, 209, 116, 180, 173, 299, 288, 333, 265, 272, 288, 209, 198, 272, 180, 198, 209, 109, 130, 173, 32, 43, 78, 102, 109, 162, 14, 7, 50, 146, 162, 218, 227, 218, 252, 245, 252, 308, 308, 353, 362, 109, 102, 64, 116, 137, 78, 123, 57, 50, 130, 109, 71, 25, 32, 71, 96, 156, 181, 44, 15, 58, 181, 156, 192, 199, 192, 237, 273, 237, 282, 289, 282, 327, 300, 345, 354, 253, 266, 300, 219, 210, 266, 163, 174, 210, 138, 117, 181, 300, 289, 334, 266, 273, 289, 210, 199, 273, 174, 181, 199, 110, 131, 174, 33, 44, 79, 103, 110, 163, 15, 8, 51, 147, 163, 219, 228, 219, 253, 246, 253, 309, 309, 354, 363, 110, 103, 65, 117, 138, 79, 96, 124, 58, 131, 110, 72, 26, 33, 72]
                    uniform token subdivisionScheme = "none"
                }
            }
        }
    }
}

