#usda 1.0
(
    customLayerData = {
        dictionary renderSettings = {
        }
    }
    defaultPrim = "ReferenceTarget"
    metersPerUnit = 1
    upAxis = "Z"
)

def Xform "ReferenceTarget" (
    kind = "group"
)
{
    float3 xformOp:rotateXYZ = (0, 0, 0)
    float3 xformOp:scale = (1, 1, 1)
    double3 xformOp:translate = (0, 0, 0)
    uniform token[] xformOpOrder = ["xformOp:translate", "xformOp:rotateXYZ", "xformOp:scale"]

    def Xform "XForms" (
        kind = "group"
    )
    {
        float3 xformOp:rotateXYZ = (0, 0, 0)
        float3 xformOp:scale = (0.1, 0.1, 0.1)
        double3 xformOp:translate = (0, 0, 0)
        uniform token[] xformOpOrder = ["xformOp:translate", "xformOp:rotateXYZ", "xformOp:scale"]

        def Xform "World" (
            kind = "component"
        )
        {
            float3 xformOp:rotateXYZ = (0, 0, 0)
            float3 xformOp:scale = (1, 1, 1)
            double3 xformOp:translate = (0, 0, 0)
            uniform token[] xformOpOrder = ["xformOp:translate", "xformOp:rotateXYZ", "xformOp:scale"]

            def Scope "Looks" (references = @materials.usda@</Looks>)
            {
            }

            def Xform "grass_20_dry"
            {
                float3 xformOp:rotateXYZ = (0, 0, 0)
                float3 xformOp:scale = (1, 1, 1)
                double3 xformOp:translate = (0, 0, 0)
                uniform token[] xformOpOrder = ["xformOp:translate", "xformOp:rotateXYZ", "xformOp:scale"]

                def Mesh "Plane_042" (
                    prepend apiSchemas = ["MaterialBindingAPI"]
                )
                {
                    float3[] extent = [(-0.3976943, -0.36875367, -0.005431453), (0.28169912, 0.4397946, 0.7187238)]
                    int[] faceVertexCounts = [3, 3, 3, 3, 3, 3, 3, 3, 3, 3, 3, 3, 3, 3, 3, 3, 3, 3, 3, 3, 3, 3, 3, 3, 3, 3, 3, 3, 3, 3, 3, 3, 3, 3, 3, 3, 3, 3, 3, 3, 3, 3, 3, 3, 3, 3, 3, 3, 3, 3, 3, 3, 3, 3, 3, 3, 3, 3, 3, 3, 3, 3, 3, 3, 3, 3, 3, 3, 3, 3, 3, 3, 3, 3, 3, 3, 3, 3, 3, 3, 3, 3, 3, 3, 3, 3, 3, 3, 3, 3, 3, 3, 3, 3, 3, 3, 3, 3, 3, 3, 3, 3, 3, 3, 3, 3, 3, 3, 3, 3, 3, 3, 3, 3, 3, 3, 3, 3, 3, 3, 3, 3, 3, 3, 3, 3, 3, 3, 3, 3, 3, 3]
                    int[] faceVertexIndices = [11, 8, 4, 7, 6, 9, 9, 4, 8, 5, 3, 2, 12, 10, 13, 1, 10, 0, 26, 18, 25, 19, 23, 21, 20, 22, 23, 19, 17, 16, 25, 27, 26, 14, 27, 24, 40, 32, 39, 33, 37, 35, 34, 36, 37, 33, 31, 30, 39, 41, 40, 28, 41, 38, 53, 50, 46, 49, 48, 51, 51, 46, 50, 47, 45, 44, 54, 52, 55, 42, 55, 52, 68, 60, 67, 61, 65, 63, 62, 64, 65, 63, 58, 61, 67, 69, 68, 57, 66, 56, 78, 82, 77, 75, 79, 76, 70, 74, 75, 78, 76, 79, 83, 81, 80, 80, 72, 83, 92, 96, 91, 89, 93, 90, 84, 88, 89, 92, 90, 93, 97, 95, 94, 94, 86, 97, 105, 109, 110, 103, 107, 104, 98, 102, 103, 106, 104, 107, 108, 110, 109, 111, 101, 100, 123, 120, 116, 119, 118, 121, 121, 116, 120, 117, 115, 114, 123, 125, 124, 112, 125, 122, 134, 138, 133, 131, 135, 132, 126, 130, 131, 134, 132, 135, 139, 137, 136, 139, 129, 128, 147, 151, 152, 145, 149, 146, 140, 144, 145, 148, 146, 149, 150, 152, 151, 153, 143, 142, 11, 12, 8, 7, 5, 6, 9, 6, 4, 5, 7, 3, 12, 11, 10, 1, 13, 10, 26, 22, 18, 19, 20, 23, 20, 18, 22, 19, 21, 17, 25, 24, 27, 14, 15, 27, 40, 36, 32, 33, 34, 37, 34, 32, 36, 33, 35, 31, 39, 38, 41, 28, 29, 41, 53, 54, 50, 49, 47, 48, 51, 48, 46, 47, 49, 45, 54, 53, 52, 42, 43, 55, 68, 64, 60, 61, 62, 65, 62, 60, 64, 63, 59, 58, 67, 66, 69, 57, 69, 66, 78, 81, 82, 75, 74, 79, 70, 71, 74, 78, 77, 76, 83, 82, 81, 80, 73, 72, 92, 95, 96, 89, 88, 93, 84, 85, 88, 92, 91, 90, 97, 96, 95, 94, 87, 86, 105, 106, 109, 103, 102, 107, 98, 99, 102, 106, 105, 104, 108, 111, 110, 111, 108, 101, 123, 124, 120, 119, 117, 118, 121, 118, 116, 117, 119, 115, 123, 122, 125, 112, 113, 125, 134, 137, 138, 131, 130, 135, 126, 127, 130, 134, 133, 132, 139, 138, 137, 139, 136, 129, 147, 148, 151, 145, 144, 149, 140, 141, 144, 148, 147, 146, 150, 153, 152, 153, 150, 143]
                    rel material:binding = </ReferenceTarget/XForms/World/Looks/plants_atlas_6_dry>
                    normal3f[] normals = [(-0.012453357, -0.86686164, 0.49839327), (-0.031041117, -0.72857475, 0.6842626), (-0.031809215, -0.7276201, 0.6852424), (-0.03599248, -0.26309136, 0.9640993), (-0.036431096, -0.5397161, 0.84105843), (-0.036029607, -0.54413337, 0.83822477), (-0.036029607, -0.54413337, 0.83822477), (-0.031809215, -0.7276201, 0.6852424), (-0.031041117, -0.72857475, 0.6842626), (-0.03500083, -0.24932204, 0.9677879), (0.031934395, -0.06814782, 0.997164), (0.034486692, -0.06813708, 0.99707973), (-0.01152221, -0.8672827, 0.49768257), (-0.002007767, -0.96032274, 0.2788838), (-0.0015935556, -0.9604101, 0.27858555), (-0.00002541025, -0.98724407, 0.15921406), (-0.002007767, -0.96032274, 0.2788838), (0, -0.987244, 0.15921487), (0.88426805, -0.33545816, 0.3248661), (0.75217307, -0.31196192, 0.5804442), (0.8885773, -0.33547503, 0.31286904), (0.5525088, -0.24683431, 0.79611987), (0.5903, -0.25995633, 0.76417834), (0.5522495, -0.24827914, 0.7958505), (0.5962053, -0.26153502, 0.7590381), (0.74440086, -0.31069598, 0.591046), (0.5903, -0.25995633, 0.76417834), (0.5525088, -0.24683431, 0.79611987), (0.6333397, -0.16549094, 0.75597185), (0.6348628, -0.16090061, 0.75568527), (0.8885773, -0.33547503, 0.31286904), (0.93397987, -0.3452613, 0.09206691), (0.88426805, -0.33545816, 0.3248661), (0.9414173, -0.3357489, 0.031720612), (0.93397987, -0.3452613, 0.09206691), (0.93426096, -0.34473637, 0.09117804), (0.11980653, 0.73066515, 0.67214197), (0.11846093, 0.605027, 0.7873432), (0.118806735, 0.7346912, 0.66791755), (0.06503101, 0.27120167, 0.96032315), (0.102950096, 0.47690672, 0.8729039), (0.06703004, 0.27470675, 0.9591888), (0.10214784, 0.47839484, 0.87218356), (0.11967949, 0.6020915, 0.78940654), (0.102950096, 0.47690672, 0.8729039), (0.06503101, 0.27120167, 0.96032315), (-0.020367404, 0.14758992, 0.9888389), (-0.023532163, 0.14826588, 0.9886675), (0.118806735, 0.7346912, 0.66791755), (0.14419, 0.8950857, 0.42193705), (0.11980653, 0.73066515, 0.67214197), (0.16460848, 0.95746136, 0.23700601), (0.14419, 0.8950857, 0.42193705), (0.14375463, 0.8969371, 0.4181369), (-0.8779391, 0.45585, 0.14636809), (-0.83238035, 0.4597802, 0.30942714), (-0.82212186, 0.45507863, 0.3420805), (-0.55133194, 0.30799225, 0.7753541), (-0.7188315, 0.40284848, 0.5665636), (-0.7302204, 0.40904456, 0.5472301), (-0.7302204, 0.40904456, 0.5472301), (-0.82212186, 0.45507863, 0.3420805), (-0.83238035, 0.4597802, 0.30942714), (-0.52698886, 0.29286927, 0.79781604), (-0.40990597, 0.16890506, 0.89635277), (-0.41073912, 0.16719389, 0.89629215), (-0.87948203, 0.45600283, 0.13628216), (-0.88187754, 0.45936102, 0.10620545), (-0.8816318, 0.45949274, 0.10766569), (-0.8764361, 0.46733913, 0.115990855), (-0.8816318, 0.45949274, 0.10766569), (-0.88187754, 0.45936102, 0.10620545), (0.82842773, 0.16441247, 0.5354213), (0.7108741, 0.10804259, 0.6949711), (0.8321637, 0.16680236, 0.5288483), (0.37647176, 0.03795772, 0.9256502), (0.5878255, 0.0778889, 0.8052295), (0.370689, 0.03751341, 0.9279991), (0.5930351, 0.079177655, 0.80127424), (0.7058222, 0.106057614, 0.7004046), (0.5878255, 0.0778889, 0.8052295), (0.370689, 0.03751341, 0.9279991), (0.19526021, 0.09736277, 0.9759067), (0.37647176, 0.03795772, 0.9256502), (0.8321637, 0.16680236, 0.5288483), (0.9338393, 0.2084368, 0.2906857), (0.82842773, 0.16441247, 0.5354213), (0.96278566, 0.21847963, 0.15909228), (0.93413335, 0.20940837, 0.28903833), (0.96277505, 0.21852545, 0.15909383), (-0.763612, 0.24544978, 0.59720284), (-0.60057026, 0.12894487, 0.78910625), (-0.7605125, 0.24327588, 0.6020279), (-0.9151505, 0.37592322, 0.1455375), (-0.87685007, 0.33136228, 0.34832883), (-0.8724659, 0.32590067, 0.36413175), (-0.92216915, 0.3818474, 0.061617095), (-0.9155909, 0.37723666, 0.13923292), (-0.9151505, 0.37592322, 0.1455375), (-0.763612, 0.24544978, 0.59720284), (-0.8724659, 0.32590067, 0.36413175), (-0.87685007, 0.33136228, 0.34832883), (-0.4047181, 0.007895858, 0.91440743), (-0.5989538, 0.12462592, 0.7910264), (-0.40197286, 0.0027299793, 0.91564757), (-0.40197286, 0.0027299793, 0.91564757), (-0.31842914, -0.12795703, 0.9392709), (-0.4047181, 0.007895858, 0.91440743), (0.782477, -0.17629375, 0.59720206), (0.60968375, -0.07481442, 0.7891062), (0.77919525, -0.17440441, 0.6020281), (0.94505715, -0.2927213, 0.1455374), (0.9029317, -0.25175682, 0.34832865), (0.89807725, -0.246708, 0.36413252), (0.9525765, -0.29799536, 0.061617184), (0.94561297, -0.29399022, 0.13923284), (0.94505715, -0.2927213, 0.1455374), (0.782477, -0.17629375, 0.59720206), (0.89807725, -0.246708, 0.36413252), (0.9029317, -0.25175682, 0.34832865), (0.40380728, 0.028275073, 0.914407), (0.6076883, -0.0706562, 0.79102635), (0.40061304, 0.033175834, 0.91564655), (0.40061304, 0.033175834, 0.91564655), (0.30573034, 0.15587234, 0.93927246), (0.40380728, 0.028275073, 0.914407), (-0.3847056, -0.8395631, 0.3835822), (-0.32650453, -0.83204824, 0.44843125), (-0.31801897, -0.8295185, 0.4590894), (-0.49648914, -0.86417216, 0.081884265), (-0.45113623, -0.8619056, 0.23150548), (-0.44490504, -0.86040545, 0.24851951), (-0.5055823, -0.8627739, 0.0027701762), (-0.4977375, -0.8639814, 0.07611548), (-0.49648914, -0.86417216, 0.081884265), (-0.39231214, -0.84209144, 0.37009895), (-0.44490504, -0.86040545, 0.24851951), (-0.45113623, -0.8619056, 0.23150548), (-0.21752472, -0.787927, 0.57606775), (-0.31801897, -0.8295185, 0.4590894), (-0.32650453, -0.83204824, 0.44843125), (-0.14283998, -0.7392393, 0.6581201), (0.023449365, -0.68302643, 0.7300171), (0.02717524, -0.6835212, 0.72942466), (-0.35146317, 0.7865564, 0.50774264), (-0.28967172, 0.6953144, 0.6577447), (-0.2873637, 0.6922057, 0.6620222), (-0.330077, 0.67033297, 0.66460735), (-0.2639073, 0.6452112, 0.7169765), (-0.26132956, 0.64563775, 0.7175366), (-0.26132956, 0.64563775, 0.7175366), (-0.2873637, 0.6922057, 0.6620222), (-0.28967172, 0.6953144, 0.6577447), (-0.34583747, 0.6869298, 0.6391588), (-0.36027235, 0.73519516, 0.574188), (-0.3596851, 0.73582363, 0.573751), (-0.35146317, 0.7865564, 0.50774264), (-0.40367988, 0.8754132, 0.26588383), (-0.35152066, 0.7865369, 0.5077332), (-0.41813186, 0.9020145, 0.10740402), (-0.40367988, 0.8754132, 0.26588383), (-0.40401047, 0.8752673, 0.26586187), (0.21029326, -0.3505457, 0.9126305), (-0.07897346, -0.27466202, 0.95829225), (0.21188197, -0.35021096, 0.91239154), (0.59273523, -0.43419883, 0.67833346), (0.43823025, -0.4040333, 0.8029392), (0.43738326, -0.4036855, 0.80357575), (0.651108, -0.43947306, 0.6188068), (0.5934719, -0.4345001, 0.677496), (0.59273523, -0.43419883, 0.67833346), (0.21029326, -0.3505457, 0.9126305), (0.43738326, -0.4036855, 0.80357575), (0.43823025, -0.4040333, 0.8029392), (-0.36811596, -0.151065, 0.91742575), (-0.08467444, -0.27354982, 0.95812356), (-0.36982945, -0.15137966, 0.91668445), (-0.36811596, -0.151065, 0.91742575), (-0.46202317, -0.02712427, 0.8864529), (-0.46040645, -0.023782795, 0.8873896), (-0.22254916, -0.1510827, 0.96314377), (-0.29323646, 0.005165607, 0.95602596), (-0.29503423, 0.008974967, 0.9554445), (-0.02565122, -0.6323015, 0.77429754), (-0.15070021, -0.34222817, 0.92745316), (-0.15432851, -0.33247876, 0.9303981), (0.0713741, -0.79218143, 0.6060976), (-0.020141544, -0.643005, 0.76559716), (-0.02565122, -0.6323015, 0.77429754), (-0.22020324, -0.15618671, 0.9628688), (-0.15432851, -0.33247876, 0.9303981), (-0.15070021, -0.34222817, 0.92745316), (-0.34180513, 0.18179189, 0.92202), (-0.29503423, 0.008974967, 0.9554445), (-0.29323646, 0.005165607, 0.95602596), (-0.3418335, 0.18596375, 0.92117715), (-0.29437086, 0.28894532, 0.91096455), (-0.29165515, 0.28971195, 0.91159433), (-0.012453357, -0.86686164, 0.49839327), (-0.01152221, -0.8672827, 0.49768257), (-0.031041117, -0.72857475, 0.6842626), (-0.03599248, -0.26309136, 0.9640993), (-0.03500083, -0.24932204, 0.9677879), (-0.036431096, -0.5397161, 0.84105843), (-0.036029607, -0.54413337, 0.83822477), (-0.036431096, -0.5397161, 0.84105843), (-0.031809215, -0.7276201, 0.6852424), (-0.03500083, -0.24932204, 0.9677879), (-0.03599248, -0.26309136, 0.9640993), (0.031934395, -0.06814782, 0.997164), (-0.01152221, -0.8672827, 0.49768257), (-0.012453357, -0.86686164, 0.49839327), (-0.002007767, -0.96032274, 0.2788838), (-0.00002541025, -0.98724407, 0.15921406), (-0.0015935556, -0.9604101, 0.27858555), (-0.002007767, -0.96032274, 0.2788838), (0.88426805, -0.33545816, 0.3248661), (0.74440086, -0.31069598, 0.591046), (0.75217307, -0.31196192, 0.5804442), (0.5525088, -0.24683431, 0.79611987), (0.5962053, -0.26153502, 0.7590381), (0.5903, -0.25995633, 0.76417834), (0.5962053, -0.26153502, 0.7590381), (0.75217307, -0.31196192, 0.5804442), (0.74440086, -0.31069598, 0.591046), (0.5525088, -0.24683431, 0.79611987), (0.5522495, -0.24827914, 0.7958505), (0.6333397, -0.16549094, 0.75597185), (0.8885773, -0.33547503, 0.31286904), (0.93426096, -0.34473637, 0.09117804), (0.93397987, -0.3452613, 0.09206691), (0.9414173, -0.3357489, 0.031720612), (0.94150084, -0.3355158, 0.03170712), (0.93397987, -0.3452613, 0.09206691), (0.11980653, 0.73066515, 0.67214197), (0.11967949, 0.6020915, 0.78940654), (0.11846093, 0.605027, 0.7873432), (0.06503101, 0.27120167, 0.96032315), (0.10214784, 0.47839484, 0.87218356), (0.102950096, 0.47690672, 0.8729039), (0.10214784, 0.47839484, 0.87218356), (0.11846093, 0.605027, 0.7873432), (0.11967949, 0.6020915, 0.78940654), (0.06503101, 0.27120167, 0.96032315), (0.06703004, 0.27470675, 0.9591888), (-0.020367404, 0.14758992, 0.9888389), (0.118806735, 0.7346912, 0.66791755), (0.14375463, 0.8969371, 0.4181369), (0.14419, 0.8950857, 0.42193705), (0.16460848, 0.95746136, 0.23700601), (0.16477032, 0.95743036, 0.23701845), (0.14419, 0.8950857, 0.42193705), (-0.8779391, 0.45585, 0.14636809), (-0.87948203, 0.45600283, 0.13628216), (-0.83238035, 0.4597802, 0.30942714), (-0.55133194, 0.30799225, 0.7753541), (-0.52698886, 0.29286927, 0.79781604), (-0.7188315, 0.40284848, 0.5665636), (-0.7302204, 0.40904456, 0.5472301), (-0.7188315, 0.40284848, 0.5665636), (-0.82212186, 0.45507863, 0.3420805), (-0.52698886, 0.29286927, 0.79781604), (-0.55133194, 0.30799225, 0.7753541), (-0.40990597, 0.16890506, 0.89635277), (-0.87948203, 0.45600283, 0.13628216), (-0.8779391, 0.45585, 0.14636809), (-0.88187754, 0.45936102, 0.10620545), (-0.8764361, 0.46733913, 0.115990855), (-0.8763229, 0.4675533, 0.11598307), (-0.8816318, 0.45949274, 0.10766569), (0.82842773, 0.16441247, 0.5354213), (0.7058222, 0.106057614, 0.7004046), (0.7108741, 0.10804259, 0.6949711), (0.37647176, 0.03795772, 0.9256502), (0.5930351, 0.079177655, 0.80127424), (0.5878255, 0.0778889, 0.8052295), (0.5930351, 0.079177655, 0.80127424), (0.7108741, 0.10804259, 0.6949711), (0.7058222, 0.106057614, 0.7004046), (0.370689, 0.03751341, 0.9279991), (0.1947144, 0.099861085, 0.9757633), (0.19526021, 0.09736277, 0.9759067), (0.8321637, 0.16680236, 0.5288483), (0.93413335, 0.20940837, 0.28903833), (0.9338393, 0.2084368, 0.2906857), (0.96278566, 0.21847963, 0.15909228), (0.9338393, 0.2084368, 0.2906857), (0.93413335, 0.20940837, 0.28903833), (-0.763612, 0.24544978, 0.59720284), (-0.5989538, 0.12462592, 0.7910264), (-0.60057026, 0.12894487, 0.78910625), (-0.9151505, 0.37592322, 0.1455375), (-0.9155909, 0.37723666, 0.13923292), (-0.87685007, 0.33136228, 0.34832883), (-0.92216915, 0.3818474, 0.061617095), (-0.9221346, 0.38192943, 0.06162571), (-0.9155909, 0.37723666, 0.13923292), (-0.763612, 0.24544978, 0.59720284), (-0.7605125, 0.24327588, 0.6020279), (-0.8724659, 0.32590067, 0.36413175), (-0.4047181, 0.007895858, 0.91440743), (-0.60057026, 0.12894487, 0.78910625), (-0.5989538, 0.12462592, 0.7910264), (-0.40197286, 0.0027299793, 0.91564757), (-0.3198926, -0.13257714, 0.9381322), (-0.31842914, -0.12795703, 0.9392709), (0.782477, -0.17629375, 0.59720206), (0.6076883, -0.0706562, 0.79102635), (0.60968375, -0.07481442, 0.7891062), (0.94505715, -0.2927213, 0.1455374), (0.94561297, -0.29399022, 0.13923284), (0.9029317, -0.25175682, 0.34832865), (0.9525765, -0.29799536, 0.061617184), (0.95254946, -0.2980801, 0.06162581), (0.94561297, -0.29399022, 0.13923284), (0.782477, -0.17629375, 0.59720206), (0.77919525, -0.17440441, 0.6020281), (0.89807725, -0.246708, 0.36413252), (0.40380728, 0.028275073, 0.914407), (0.60968375, -0.07481442, 0.7891062), (0.6076883, -0.0706562, 0.79102635), (0.40061304, 0.033175834, 0.91564655), (0.30677524, 0.160604, 0.938134), (0.30573034, 0.15587234, 0.93927246), (-0.3847056, -0.8395631, 0.3835822), (-0.39231214, -0.84209144, 0.37009895), (-0.32650453, -0.83204824, 0.44843125), (-0.49648914, -0.86417216, 0.081884265), (-0.4977375, -0.8639814, 0.07611548), (-0.45113623, -0.8619056, 0.23150548), (-0.5055823, -0.8627739, 0.0027701762), (-0.5056257, -0.8627485, 0.0027771222), (-0.4977375, -0.8639814, 0.07611548), (-0.39231214, -0.84209144, 0.37009895), (-0.3847056, -0.8395631, 0.3835822), (-0.44490504, -0.86040545, 0.24851951), (-0.21752472, -0.787927, 0.57606775), (-0.14283998, -0.7392393, 0.6581201), (-0.31801897, -0.8295185, 0.4590894), (-0.14283998, -0.7392393, 0.6581201), (-0.21752472, -0.787927, 0.57606775), (0.023449365, -0.68302643, 0.7300171), (-0.35146317, 0.7865564, 0.50774264), (-0.35152066, 0.7865369, 0.5077332), (-0.28967172, 0.6953144, 0.6577447), (-0.330077, 0.67033297, 0.66460735), (-0.34583747, 0.6869298, 0.6391588), (-0.2639073, 0.6452112, 0.7169765), (-0.26132956, 0.64563775, 0.7175366), (-0.2639073, 0.6452112, 0.7169765), (-0.2873637, 0.6922057, 0.6620222), (-0.34583747, 0.6869298, 0.6391588), (-0.330077, 0.67033297, 0.66460735), (-0.36027235, 0.73519516, 0.574188), (-0.35146317, 0.7865564, 0.50774264), (-0.40401047, 0.8752673, 0.26586187), (-0.40367988, 0.8754132, 0.26588383), (-0.41813186, 0.9020145, 0.10740402), (-0.41815633, 0.9020031, 0.107404284), (-0.40367988, 0.8754132, 0.26588383), (0.21029326, -0.3505457, 0.9126305), (-0.08467444, -0.27354982, 0.95812356), (-0.07897346, -0.27466202, 0.95829225), (0.59273523, -0.43419883, 0.67833346), (0.5934719, -0.4345001, 0.677496), (0.43823025, -0.4040333, 0.8029392), (0.651108, -0.43947306, 0.6188068), (0.65111524, -0.4394575, 0.6188102), (0.5934719, -0.4345001, 0.677496), (0.21029326, -0.3505457, 0.9126305), (0.21188197, -0.35021096, 0.91239154), (0.43738326, -0.4036855, 0.80357575), (-0.36811596, -0.151065, 0.91742575), (-0.07897346, -0.27466202, 0.95829225), (-0.08467444, -0.27354982, 0.95812356), (-0.36811596, -0.151065, 0.91742575), (-0.36982945, -0.15137966, 0.91668445), (-0.46202317, -0.02712427, 0.8864529), (-0.22254916, -0.1510827, 0.96314377), (-0.22020324, -0.15618671, 0.9628688), (-0.29323646, 0.005165607, 0.95602596), (-0.02565122, -0.6323015, 0.77429754), (-0.020141544, -0.643005, 0.76559716), (-0.15070021, -0.34222817, 0.92745316), (0.0713741, -0.79218143, 0.6060976), (0.07138909, -0.7921776, 0.60610074), (-0.020141544, -0.643005, 0.76559716), (-0.22020324, -0.15618671, 0.9628688), (-0.22254916, -0.1510827, 0.96314377), (-0.15432851, -0.33247876, 0.9303981), (-0.34180513, 0.18179189, 0.92202), (-0.3418335, 0.18596375, 0.92117715), (-0.29503423, 0.008974967, 0.9554445), (-0.3418335, 0.18596375, 0.92117715), (-0.34180513, 0.18179189, 0.92202), (-0.29437086, 0.28894532, 0.91096455)] (
                        interpolation = "faceVarying"
                    )
                    point3f[] points = [(0.023878733, 0.038296733, -0.005072875), (0.03864402, 0.038296733, -0.005072875), (0.015950792, 0.4397946, 0.6107128), (0.022370744, 0.43976974, 0.610489), (0.025039682, 0.2022286, 0.5395207), (0.0226471, 0.2980367, 0.6007939), (0.023505615, 0.24518538, 0.57550704), (0.03154265, 0.29782915, 0.6010711), (0.034956492, 0.2020304, 0.53976595), (0.034479573, 0.24490605, 0.57580125), (0.026289385, 0.09939286, 0.37376606), (0.026299123, 0.12714526, 0.4381047), (0.03569002, 0.12705234, 0.4381689), (0.036278512, 0.09937878, 0.37377465), (-0.01912702, 0.042698685, -0.005245412), (-0.014838599, 0.054714978, -0.005431453), (-0.21810564, 0.14896454, 0.6361552), (-0.21686947, 0.15230545, 0.635828), (-0.07153145, 0.08737593, 0.5009973), (-0.14750849, 0.1252848, 0.57180256), (-0.10283603, 0.10413347, 0.53871584), (-0.14478484, 0.13202646, 0.57201576), (-0.06812431, 0.095726945, 0.5010881), (-0.099635564, 0.11179958, 0.5388495), (-0.027039703, 0.05544016, 0.36007664), (-0.034061108, 0.063535936, 0.421524), (-0.030445453, 0.07282876, 0.42124644), (-0.023349721, 0.06533579, 0.35968155), (-0.07253358, -0.026670799, -0.00078618526), (-0.08800428, -0.023948435, -0.0010281929), (-0.15598881, -0.36875367, 0.4094377), (-0.16032061, -0.3679834, 0.40921912), (-0.11790892, -0.1844669, 0.34852725), (-0.13739313, -0.2644633, 0.3942402), (-0.12754332, -0.22165646, 0.37439337), (-0.14614947, -0.26262328, 0.39432514), (-0.12878387, -0.18226516, 0.34848735), (-0.13754973, -0.21953341, 0.37440914), (-0.08830078, -0.08286887, 0.23745252), (-0.099030234, -0.117692426, 0.28691983), (-0.11109391, -0.115442276, 0.28660548), (-0.10111168, -0.080633625, 0.23706213), (0.002254275, 0.0047651916, -0.0020788552), (-0.0051662545, -0.0090932, -0.0022792472), (0.28169912, -0.043800592, 0.7187238), (0.27957493, -0.04764065, 0.71846664), (0.09537876, 0.02822027, 0.54109895), (0.17471759, 0.0054867566, 0.6605028), (0.1296735, 0.0211728, 0.6049761), (0.17012411, -0.002261348, 0.66031873), (0.08992997, 0.01845336, 0.5409826), (0.12448595, 0.012240648, 0.6047393), (0.04541966, 0.008089542, 0.31175777), (0.060637712, 0.017541192, 0.4051897), (0.054944225, 0.006578859, 0.40512028), (0.039400417, -0.0034610108, 0.31174457), (-0.026852017, -0.032547843, -0.0011918843), (-0.029147109, -0.022436175, -0.0011918836), (-0.39706922, -0.07818198, 0.52848125), (-0.3976943, -0.075344644, 0.5283156), (-0.1724091, -0.051202774, 0.4264199), (-0.27369347, -0.058764987, 0.50133055), (-0.21936022, -0.054083697, 0.4677123), (-0.27459878, -0.052992098, 0.5014631), (-0.17360671, -0.04403553, 0.42653865), (-0.22035125, -0.0474784, 0.46779558), (-0.07107258, -0.041674666, 0.27895012), (-0.0974113, -0.046132274, 0.3372405), (-0.09900096, -0.03819245, 0.33725184), (-0.072961, -0.03326925, 0.2789644), (0.045989532, -0.023987088, -0.00048743375), (0.042111922, -0.033350274, -0.00048094988), (0.18010524, -0.08519505, 0.21810374), (0.17888269, -0.08835775, 0.2172399), (0.047466386, -0.032445464, 0.0740328), (0.05100423, -0.02388994, 0.07412061), (0.064480044, -0.025250962, 0.13163221), (0.07848642, -0.03101429, 0.15918085), (0.075581826, -0.038252883, 0.15843669), (0.06128396, -0.033185713, 0.13110995), (0.122014865, -0.06269565, 0.20147529), (0.10536263, -0.053702272, 0.1911007), (0.10769945, -0.047912516, 0.19194457), (0.124077514, -0.057590522, 0.2023558), (-0.056007694, 0.02204536, -0.00048738322), (-0.052981466, 0.031717338, -0.00048090052), (-0.19505225, 0.07103567, 0.2181038), (-0.19411694, 0.0742949, 0.21723998), (-0.05823378, 0.03033812, 0.07403285), (-0.060993697, 0.021500915, 0.07412066), (-0.074537195, 0.02165345, 0.13163228), (-0.08900218, 0.026143337, 0.15918094), (-0.08675541, 0.033612322, 0.1584367), (-0.072062254, 0.029841835, 0.13110998), (-0.13518517, 0.05381217, 0.2014753), (-0.11779655, 0.046341337, 0.19110075), (-0.11960714, 0.040366083, 0.19194461), (-0.13678384, 0.04854329, 0.20235588), (0.06841902, 0.01477782, 0.018659044), (0.07607302, 0.010289973, 0.018006409), (0.10743172, 0.096477516, 0.31700668), (0.10996197, 0.09510605, 0.31562722), (0.079586715, 0.0085317725, 0.11153222), (0.072598994, 0.012620544, 0.11225228), (0.07929484, 0.021854542, 0.1852336), (0.08533321, 0.031333517, 0.21799245), (0.09117935, 0.027998222, 0.21657994), (0.08572557, 0.01815179, 0.18395711), (0.10437262, 0.05845064, 0.28203803), (0.09875793, 0.044870894, 0.2553193), (0.094122395, 0.047585566, 0.25700226), (0.10040283, 0.06097307, 0.28399858), (0.039264362, -0.040175665, -0.002675265), (0.028021174, -0.045387853, -0.0026752646), (0.17843339, -0.20235038, 0.52333516), (0.17353606, -0.2045977, 0.52314717), (0.099422865, -0.14206985, 0.42452484), (0.13290551, -0.19388309, 0.4839345), (0.11575534, -0.16743049, 0.45294416), (0.12605791, -0.19784312, 0.48448122), (0.09179906, -0.14546448, 0.4247616), (0.10729385, -0.1712184, 0.453274), (0.062363017, -0.063592836, 0.28379998), (0.071330756, -0.090782225, 0.34553632), (0.06415037, -0.09400728, 0.34556106), (0.054751717, -0.06710829, 0.2838072), (-0.08100942, -0.0033670836, -0.0044244514), (-0.07847652, 0.0030759932, -0.0025139411), (-0.2686276, 0.048730142, 0.072035864), (-0.26769152, 0.0509619, 0.07258135), (-0.12326607, 0.0051293913, 0.046072107), (-0.12558275, -0.0007602405, 0.04432417), (-0.16541333, 0.0049801324, 0.07656402), (-0.18747042, 0.010443978, 0.08754931), (-0.18555795, 0.015458423, 0.089029916), (-0.16329575, 0.010455136, 0.07816128), (-0.22823603, 0.030709386, 0.09284459), (-0.21547748, 0.02514898, 0.09487977), (-0.21698259, 0.021135174, 0.093600206), (-0.22958238, 0.027164718, 0.09171606), (-0.11565595, -0.030679207, -0.000007685274), (-0.1090321, -0.028640946, 0.0018761568), (-0.22501813, 0.22490127, 0.05162597), (-0.22270474, 0.22560923, 0.05214112), (-0.1358992, 0.0071185897, 0.051778655), (-0.14195491, 0.005256367, 0.05005523), (-0.17126575, 0.061246112, 0.07424196), (-0.18699916, 0.09695792, 0.07955491), (-0.18190287, 0.098644674, 0.08099392), (-0.16566913, 0.06303035, 0.07580798), (-0.20769824, 0.16805336, 0.07555994), (-0.20095514, 0.14717063, 0.08003475), (-0.20501411, 0.1457904, 0.07879406), (-0.21130006, 0.16686401, 0.07445947)]
                    texCoord2f[] primvars:st = [(0.28916085, 0.11478968), (0.28916085, 0.11478968), (0.28916085, 0.11478968), (0.28916085, 0.11478968), (0.28916085, 0.11478968), (0.28916085, 0.11478968), (0.30027497, 0.11478968), (0.30027497, 0.11478968), (0.30027497, 0.11478968), (0.30027497, 0.11478968), (0.30027497, 0.11478968), (0.30027497, 0.11478968), (0.29933527, 0.30095735), (0.29933527, 0.30095735), (0.29933527, 0.30095735), (0.29933527, 0.30095735), (0.29933527, 0.30095735), (0.29933527, 0.30095735), (0.2901005, 0.30095738), (0.2901005, 0.30095738), (0.2901005, 0.30095738), (0.2901005, 0.30095738), (0.2901005, 0.30095738), (0.2901005, 0.30095738), (0.29020566, 0.3217855), (0.29020566, 0.3217855), (0.29020566, 0.3217855), (0.29020566, 0.3217855), (0.29020566, 0.3217855), (0.29923013, 0.3217855), (0.29923013, 0.3217855), (0.29923013, 0.3217855), (0.29923013, 0.3217855), (0.29923013, 0.3217855), (0.29869497, 0.34617206), (0.29869497, 0.34617206), (0.29869497, 0.34617206), (0.29869497, 0.34617206), (0.29869497, 0.34617206), (0.29869497, 0.34617206), (0.28997454, 0.34619343), (0.28997454, 0.34619343), (0.28997454, 0.34619343), (0.28997454, 0.34619343), (0.28997454, 0.34619343), (0.28997454, 0.34619343), (0.28961813, 0.38383007), (0.28961813, 0.38383007), (0.28961813, 0.38383007), (0.28961813, 0.38383007), (0.28961813, 0.38383007), (0.2978686, 0.38383007), (0.2978686, 0.38383007), (0.2978686, 0.38383007), (0.2978686, 0.38383007), (0.2978686, 0.38383007), (0.2893378, 0.4134344), (0.2893378, 0.4134344), (0.2893378, 0.4134344), (0.2893378, 0.4134344), (0.2893378, 0.4134344), (0.2893378, 0.4134344), (0.29721823, 0.4134686), (0.29721823, 0.4134686), (0.29721823, 0.4134686), (0.29721823, 0.4134686), (0.29721823, 0.4134686), (0.29721823, 0.4134686), (0.28915823, 0.43240124), (0.28915823, 0.43240124), (0.28915823, 0.43240124), (0.28915823, 0.43240124), (0.28915823, 0.43240124), (0.29680273, 0.43240348), (0.29680273, 0.43240348), (0.29680273, 0.43240348), (0.29680273, 0.43240348), (0.29680273, 0.43240348), (0.28903064, 0.44587463), (0.28903064, 0.44587463), (0.28903064, 0.44587463), (0.28903064, 0.44587463), (0.28903064, 0.44587463), (0.28903064, 0.44587463), (0.29596233, 0.44587463), (0.29596233, 0.44587463), (0.29596233, 0.44587463), (0.29596233, 0.44587463), (0.29596233, 0.44587463), (0.29596233, 0.44587463), (0.29563054, 0.4607775), (0.29563054, 0.4607775), (0.29563054, 0.4607775), (0.29563054, 0.4607775), (0.29563054, 0.4607775), (0.28863022, 0.4607859), (0.28863022, 0.4607859), (0.28863022, 0.4607859), (0.28863022, 0.4607859), (0.28863022, 0.4607859), (0.2944298, 0.4811914), (0.2944298, 0.4811914), (0.2944298, 0.4811914), (0.2944298, 0.4811914), (0.2944298, 0.4811914), (0.2944298, 0.4811914), (0.2880821, 0.48119694), (0.2880821, 0.48119694), (0.2880821, 0.48119694), (0.2880821, 0.48119694), (0.2880821, 0.48119694), (0.2880821, 0.48119694), (0.28747392, 0.503844), (0.28747392, 0.503844), (0.28747392, 0.503844), (0.28747392, 0.503844), (0.28747392, 0.503844), (0.2930969, 0.5038522), (0.2930969, 0.5038522), (0.2930969, 0.5038522), (0.2930969, 0.5038522), (0.2930969, 0.5038522), (0.28692716, 0.52420413), (0.28692716, 0.52420413), (0.28692716, 0.52420413), (0.28692716, 0.52420413), (0.28692716, 0.52420413), (0.29189974, 0.5242053), (0.29189974, 0.5242053), (0.29189974, 0.5242053), (0.29189974, 0.5242053), (0.29189974, 0.5242053), (0.2853651, 0.58237195), (0.2853651, 0.58237195), (0.2853651, 0.58237195), (0.2853651, 0.58237195), (0.2853651, 0.58237195), (0.2853651, 0.58237195), (0.2853651, 0.58237195), (0.2853651, 0.58237195), (0.2853651, 0.58237195), (0.2853651, 0.58237195), (0.2853651, 0.58237195), (0.2884784, 0.58237195), (0.2884784, 0.58237195), (0.2884784, 0.58237195), (0.2884784, 0.58237195), (0.2884784, 0.58237195), (0.2884784, 0.58237195), (0.2884784, 0.58237195), (0.2884784, 0.58237195), (0.2884784, 0.58237195), (0.2884784, 0.58237195), (0.2884784, 0.58237195)] (
                        interpolation = "faceVarying"
                    )
                    int[] primvars:st:indices = [40, 62, 56, 100, 78, 84, 84, 56, 62, 106, 143, 132, 34, 18, 12, 6, 18, 0, 35, 57, 41, 107, 85, 101, 79, 63, 85, 107, 144, 133, 41, 13, 35, 1, 13, 19, 36, 58, 42, 108, 86, 102, 80, 64, 86, 108, 145, 134, 42, 14, 36, 2, 14, 20, 43, 65, 59, 103, 81, 87, 87, 59, 65, 109, 146, 135, 37, 21, 15, 3, 15, 21, 38, 60, 44, 110, 88, 104, 82, 66, 88, 104, 136, 110, 44, 16, 38, 10, 22, 4, 90, 112, 95, 46, 73, 68, 24, 51, 46, 90, 68, 73, 122, 117, 127, 127, 137, 122, 91, 113, 96, 47, 74, 69, 25, 52, 47, 91, 69, 74, 123, 118, 128, 128, 138, 123, 97, 119, 114, 48, 75, 70, 26, 53, 48, 92, 70, 75, 129, 114, 119, 124, 150, 139, 45, 67, 61, 105, 83, 89, 89, 61, 67, 111, 151, 140, 45, 17, 39, 5, 17, 23, 93, 115, 98, 49, 76, 71, 27, 54, 49, 93, 71, 76, 125, 120, 130, 125, 152, 141, 99, 121, 116, 50, 77, 72, 28, 55, 50, 94, 72, 77, 131, 116, 121, 126, 153, 142, 40, 34, 62, 100, 106, 78, 84, 78, 56, 106, 100, 143, 34, 40, 18, 6, 12, 18, 35, 63, 57, 107, 79, 85, 79, 57, 63, 107, 101, 144, 41, 19, 13, 1, 7, 13, 36, 64, 58, 108, 80, 86, 80, 58, 64, 108, 102, 145, 42, 20, 14, 2, 8, 14, 43, 37, 65, 103, 109, 81, 87, 81, 59, 109, 103, 146, 37, 43, 21, 3, 9, 15, 38, 66, 60, 110, 82, 88, 82, 60, 66, 104, 147, 136, 44, 22, 16, 10, 16, 22, 90, 117, 112, 46, 51, 73, 24, 29, 51, 90, 95, 68, 122, 112, 117, 127, 148, 137, 91, 118, 113, 47, 52, 74, 25, 30, 52, 91, 96, 69, 123, 113, 118, 128, 149, 138, 97, 92, 119, 48, 53, 75, 26, 31, 53, 92, 97, 70, 129, 124, 114, 124, 129, 150, 45, 39, 67, 105, 111, 83, 89, 83, 61, 111, 105, 151, 45, 23, 17, 5, 11, 17, 93, 120, 115, 49, 54, 76, 27, 32, 54, 93, 98, 71, 125, 115, 120, 125, 130, 152, 99, 94, 121, 50, 55, 77, 28, 33, 55, 94, 99, 72, 131, 126, 116, 126, 131, 153]
                    uniform token subdivisionScheme = "none"
                }
            }
        }
    }
}

